<?xml version="1.0" encoding="iso-8859-1"?>
<!-- Generator: Adobe Illustrator 13.0.0, SVG Export Plug-In . SVG Version: 6.00 Build 14948)  -->
<!DOCTYPE svg PUBLIC "-//W3C//DTD SVG 1.1//EN" "http://www.w3.org/Graphics/SVG/1.1/DTD/svg11.dtd">
<svg version="1.1" id="Layer_1" xmlns="http://www.w3.org/2000/svg" xmlns:xlink="http://www.w3.org/1999/xlink" x="0px" y="0px"
	 width="100px" height="100px" viewBox="0 0 100 100" enable-background="new 0 0 100 100" xml:space="preserve">
<g>
	<radialGradient id="SVGID_1_" cx="50.3721" cy="86.6562" r="0.3412" gradientUnits="userSpaceOnUse">
		<stop  offset="0" style="stop-color:#BDDFF3"/>
		<stop  offset="0.4263" style="stop-color:#6DB0E3"/>
		<stop  offset="0.9842" style="stop-color:#496796"/>
		<stop  offset="1" style="stop-color:#496796"/>
	</radialGradient>
	<path fill="url(#SVGID_1_)" d="M49.89,86.647c0.333,0,0.642,0.009,0.964,0.017c-0.322-0.008-0.632-0.017-0.956-0.017
		C49.895,86.647,49.89,86.647,49.89,86.647z"/>
	<radialGradient id="SVGID_2_" cx="18.083" cy="61.2451" r="0.0093" gradientUnits="userSpaceOnUse">
		<stop  offset="0" style="stop-color:#BDDFF3"/>
		<stop  offset="0.4263" style="stop-color:#6DB0E3"/>
		<stop  offset="0.9842" style="stop-color:#496796"/>
		<stop  offset="1" style="stop-color:#496796"/>
	</radialGradient>
	<path fill="url(#SVGID_2_)" d="M18.077,61.25l0.012,0.007c-0.004-0.008-0.008-0.016-0.012-0.023V61.25z"/>
	<radialGradient id="SVGID_3_" cx="52.3633" cy="86.6719" r="1.0662" gradientUnits="userSpaceOnUse">
		<stop  offset="0" style="stop-color:#BDDFF3"/>
		<stop  offset="0.4263" style="stop-color:#6DB0E3"/>
		<stop  offset="0.9842" style="stop-color:#496796"/>
		<stop  offset="1" style="stop-color:#496796"/>
	</radialGradient>
	<path fill="url(#SVGID_3_)" d="M50.854,86.664c1.015,0,2.019,0.009,3.017,0.017"/>
	<radialGradient id="SVGID_4_" cx="80.7236" cy="62.5137" r="0.0418" gradientUnits="userSpaceOnUse">
		<stop  offset="0" style="stop-color:#BDDFF3"/>
		<stop  offset="0.4263" style="stop-color:#6DB0E3"/>
		<stop  offset="0.9842" style="stop-color:#496796"/>
		<stop  offset="1" style="stop-color:#496796"/>
	</radialGradient>
	<polygon fill="url(#SVGID_4_)" points="80.756,62.53 80.675,62.479 80.772,62.547 	"/>
	<radialGradient id="SVGID_5_" cx="66.7627" cy="41.916" r="0.0974" gradientUnits="userSpaceOnUse">
		<stop  offset="0" style="stop-color:#BDDFF3"/>
		<stop  offset="0.4263" style="stop-color:#6DB0E3"/>
		<stop  offset="0.9842" style="stop-color:#496796"/>
		<stop  offset="1" style="stop-color:#496796"/>
	</radialGradient>
	<path fill="url(#SVGID_5_)" d="M66.761,42.036c0.033-0.066,0.084-0.148,0.067-0.24c-0.051,0.025-0.084,0.05-0.134,0.092
		l0.033,0.049v0.017C66.744,41.986,66.744,42.002,66.761,42.036z"/>
	<radialGradient id="SVGID_6_" cx="80.8984" cy="63.3496" r="0.033" gradientUnits="userSpaceOnUse">
		<stop  offset="0" style="stop-color:#BDDFF3"/>
		<stop  offset="0.4263" style="stop-color:#6DB0E3"/>
		<stop  offset="0.9842" style="stop-color:#496796"/>
		<stop  offset="1" style="stop-color:#496796"/>
	</radialGradient>
	<polygon fill="url(#SVGID_6_)" points="80.924,63.329 80.856,63.346 80.856,63.37 80.94,63.362 	"/>
	<radialGradient id="SVGID_7_" cx="37.5156" cy="24.9062" r="0.449" gradientUnits="userSpaceOnUse">
		<stop  offset="0" style="stop-color:#BDDFF3"/>
		<stop  offset="0.4263" style="stop-color:#6DB0E3"/>
		<stop  offset="0.9842" style="stop-color:#496796"/>
		<stop  offset="1" style="stop-color:#496796"/>
	</radialGradient>
	<path fill="url(#SVGID_7_)" d="M38.072,25.074c-0.183,0.05-0.333-0.092-0.466-0.241c-0.133-0.116-0.233-0.233-0.348-0.233
		c-0.1,0-0.2,0.067-0.3,0.233C37.839,24.933,37.292,25.456,38.072,25.074z"/>
	<radialGradient id="SVGID_8_" cx="73.9258" cy="28.8496" r="0.1248" gradientUnits="userSpaceOnUse">
		<stop  offset="0" style="stop-color:#BDDFF3"/>
		<stop  offset="0.4263" style="stop-color:#6DB0E3"/>
		<stop  offset="0.9842" style="stop-color:#496796"/>
		<stop  offset="1" style="stop-color:#496796"/>
	</radialGradient>
	<path fill="url(#SVGID_8_)" d="M73.76,28.856c0.084,0.107,0.198,0.033,0.332-0.05c-0.05,0-0.101,0-0.134,0
		c-0.033-0.017-0.05-0.017-0.084-0.017C73.844,28.79,73.793,28.806,73.76,28.856z"/>
	<radialGradient id="SVGID_9_" cx="65.1572" cy="39.9331" r="0.0606" gradientUnits="userSpaceOnUse">
		<stop  offset="0" style="stop-color:#BDDFF3"/>
		<stop  offset="0.4263" style="stop-color:#6DB0E3"/>
		<stop  offset="0.9842" style="stop-color:#496796"/>
		<stop  offset="1" style="stop-color:#496796"/>
	</radialGradient>
	<path fill="url(#SVGID_9_)" d="M65.115,40.008c0.017-0.049,0.051-0.099,0.084-0.149c-0.017,0.034-0.051,0.092-0.084,0.142V40.008z"
		/>
	<radialGradient id="SVGID_10_" cx="73.1201" cy="29.5664" r="0.4539" gradientUnits="userSpaceOnUse">
		<stop  offset="0" style="stop-color:#BDDFF3"/>
		<stop  offset="0.4263" style="stop-color:#6DB0E3"/>
		<stop  offset="0.9842" style="stop-color:#496796"/>
		<stop  offset="1" style="stop-color:#496796"/>
	</radialGradient>
	<path fill="url(#SVGID_10_)" d="M72.779,29.762l0.682,0.349c-0.45-0.24-0.252-0.765,0-1.088L72.779,29.762z"/>
	<radialGradient id="SVGID_11_" cx="72.5879" cy="30.5679" r="0.3318" gradientUnits="userSpaceOnUse">
		<stop  offset="0" style="stop-color:#BDDFF3"/>
		<stop  offset="0.4263" style="stop-color:#6DB0E3"/>
		<stop  offset="0.9842" style="stop-color:#496796"/>
		<stop  offset="1" style="stop-color:#496796"/>
	</radialGradient>
	<path fill="url(#SVGID_11_)" d="M72.645,31.034l-0.114-0.932l0.031,0.831C72.611,30.967,72.628,31,72.645,31.034z"/>
	<radialGradient id="SVGID_12_" cx="65.4902" cy="39.335" r="0.4231" gradientUnits="userSpaceOnUse">
		<stop  offset="0" style="stop-color:#BDDFF3"/>
		<stop  offset="0.4263" style="stop-color:#6DB0E3"/>
		<stop  offset="0.9842" style="stop-color:#496796"/>
		<stop  offset="1" style="stop-color:#496796"/>
	</radialGradient>
	<path fill="url(#SVGID_12_)" d="M65.78,38.812c0,0-0.232,0.416-0.581,1.047C65.615,39.111,65.78,38.812,65.78,38.812z"/>
	<radialGradient id="SVGID_13_" cx="81.2383" cy="62.8965" r="0.0269" gradientUnits="userSpaceOnUse">
		<stop  offset="0" style="stop-color:#BDDFF3"/>
		<stop  offset="0.4263" style="stop-color:#6DB0E3"/>
		<stop  offset="0.9842" style="stop-color:#496796"/>
		<stop  offset="1" style="stop-color:#496796"/>
	</radialGradient>
	<polygon fill="url(#SVGID_13_)" points="81.256,62.879 81.205,62.879 81.223,62.913 81.272,62.896 	"/>
	<radialGradient id="SVGID_14_" cx="62.6543" cy="33.46" r="0.1013" gradientUnits="userSpaceOnUse">
		<stop  offset="0" style="stop-color:#BDDFF3"/>
		<stop  offset="0.4263" style="stop-color:#6DB0E3"/>
		<stop  offset="0.9842" style="stop-color:#496796"/>
		<stop  offset="1" style="stop-color:#496796"/>
	</radialGradient>
	<path fill="url(#SVGID_14_)" d="M62.64,33.577l0.098-0.233c-0.064,0.033-0.114,0.066-0.165,0.116L62.64,33.577z"/>
	<radialGradient id="SVGID_15_" cx="81.0322" cy="62.1172" r="0.0395" gradientUnits="userSpaceOnUse">
		<stop  offset="0" style="stop-color:#BDDFF3"/>
		<stop  offset="0.4263" style="stop-color:#6DB0E3"/>
		<stop  offset="0.9842" style="stop-color:#496796"/>
		<stop  offset="1" style="stop-color:#496796"/>
	</radialGradient>
	<polygon fill="url(#SVGID_15_)" points="81.058,62.066 81.007,62.149 81.023,62.167 	"/>
	<radialGradient id="SVGID_16_" cx="81.2891" cy="63.1738" r="0.0879" gradientUnits="userSpaceOnUse">
		<stop  offset="0" style="stop-color:#BDDFF3"/>
		<stop  offset="0.4263" style="stop-color:#6DB0E3"/>
		<stop  offset="0.9842" style="stop-color:#496796"/>
		<stop  offset="1" style="stop-color:#496796"/>
	</radialGradient>
	<polygon fill="url(#SVGID_16_)" points="81.356,63.245 81.223,63.07 81.34,63.278 	"/>
	<radialGradient id="SVGID_17_" cx="77.6152" cy="39.0029" r="0.0131" gradientUnits="userSpaceOnUse">
		<stop  offset="0" style="stop-color:#BDDFF3"/>
		<stop  offset="0.4263" style="stop-color:#6DB0E3"/>
		<stop  offset="0.9842" style="stop-color:#496796"/>
		<stop  offset="1" style="stop-color:#496796"/>
	</radialGradient>
	<path fill="url(#SVGID_17_)" d="M77.599,39.011l0.017-0.008c0.017,0,0.017-0.008,0.017-0.008"/>
	<radialGradient id="SVGID_18_" cx="60.9521" cy="43.8896" r="0.0871" gradientUnits="userSpaceOnUse">
		<stop  offset="0" style="stop-color:#BDDFF3"/>
		<stop  offset="0.4263" style="stop-color:#6DB0E3"/>
		<stop  offset="0.9842" style="stop-color:#496796"/>
		<stop  offset="1" style="stop-color:#496796"/>
	</radialGradient>
	<polygon fill="url(#SVGID_18_)" points="61.011,43.948 61.061,43.931 60.844,43.832 	"/>
	<radialGradient id="SVGID_19_" cx="60.6621" cy="44.2227" r="0.0626" gradientUnits="userSpaceOnUse">
		<stop  offset="0" style="stop-color:#BDDFF3"/>
		<stop  offset="0.4263" style="stop-color:#6DB0E3"/>
		<stop  offset="0.9842" style="stop-color:#496796"/>
		<stop  offset="1" style="stop-color:#496796"/>
	</radialGradient>
	<polygon fill="url(#SVGID_19_)" points="60.729,44.239 60.695,44.165 60.595,44.281 	"/>
	<radialGradient id="SVGID_20_" cx="66.8779" cy="40.874" r="0.0117" gradientUnits="userSpaceOnUse">
		<stop  offset="0" style="stop-color:#BDDFF3"/>
		<stop  offset="0.4263" style="stop-color:#6DB0E3"/>
		<stop  offset="0.9842" style="stop-color:#496796"/>
		<stop  offset="1" style="stop-color:#496796"/>
	</radialGradient>
	<path fill="url(#SVGID_20_)" d="M66.878,40.891c0-0.008,0-0.013,0-0.017c0-0.004,0-0.008,0-0.017"/>
	<radialGradient id="SVGID_21_" cx="34.8892" cy="73.2402" r="0.1826" gradientUnits="userSpaceOnUse">
		<stop  offset="0" style="stop-color:#BDDFF3"/>
		<stop  offset="0.4263" style="stop-color:#6DB0E3"/>
		<stop  offset="0.9842" style="stop-color:#496796"/>
		<stop  offset="1" style="stop-color:#496796"/>
	</radialGradient>
	<path fill="url(#SVGID_21_)" d="M34.682,73.386c0.017,0.009,0.017,0.009,0.033,0.009c0.283,0.008,0.25-0.191,0.381-0.292
		c-0.033-0.017-0.066-0.017-0.083-0.017c0,0,0,0-0.015,0C34.715,73.086,34.682,73.235,34.682,73.386z"/>
	<radialGradient id="SVGID_22_" cx="29.4707" cy="30.8003" r="0.2954" gradientUnits="userSpaceOnUse">
		<stop  offset="0" style="stop-color:#BDDFF3"/>
		<stop  offset="0.4263" style="stop-color:#6DB0E3"/>
		<stop  offset="0.9842" style="stop-color:#496796"/>
		<stop  offset="1" style="stop-color:#496796"/>
	</radialGradient>
	<polygon fill="url(#SVGID_22_)" points="29.114,31.017 29.828,30.617 29.263,30.584 	"/>
	<radialGradient id="SVGID_23_" cx="29.4541" cy="26.6865" r="0.2976" gradientUnits="userSpaceOnUse">
		<stop  offset="0" style="stop-color:#BDDFF3"/>
		<stop  offset="0.4263" style="stop-color:#6DB0E3"/>
		<stop  offset="0.9842" style="stop-color:#496796"/>
		<stop  offset="1" style="stop-color:#496796"/>
	</radialGradient>
	<path fill="url(#SVGID_23_)" d="M29.529,26.296c-0.1,0.307-0.183,0.548-0.232,0.764l0.083,0.017
		c0.05-0.224,0.117-0.465,0.233-0.764L29.529,26.296z"/>
	<radialGradient id="SVGID_24_" cx="33.0771" cy="66.3711" r="0.2476" gradientUnits="userSpaceOnUse">
		<stop  offset="0" style="stop-color:#BDDFF3"/>
		<stop  offset="0.4263" style="stop-color:#6DB0E3"/>
		<stop  offset="0.9842" style="stop-color:#496796"/>
		<stop  offset="1" style="stop-color:#496796"/>
	</radialGradient>
	<path fill="url(#SVGID_24_)" d="M32.803,66.271c0.05,0.1,0.083,0.216,0.116,0.316c0.133-0.033,0.266-0.084,0.433-0.15
		c-0.017-0.1-0.05-0.184-0.066-0.282C33.119,66.197,32.969,66.229,32.803,66.271z"/>
	<radialGradient id="SVGID_25_" cx="30.937" cy="28.8975" r="0.2014" gradientUnits="userSpaceOnUse">
		<stop  offset="0" style="stop-color:#BDDFF3"/>
		<stop  offset="0.4263" style="stop-color:#6DB0E3"/>
		<stop  offset="0.9842" style="stop-color:#496796"/>
		<stop  offset="1" style="stop-color:#496796"/>
	</radialGradient>
	<path fill="url(#SVGID_25_)" d="M30.858,29.138c0.1-0.099,0.283-0.315,0.217-0.481C30.958,28.938,30.642,28.905,30.858,29.138z"/>
	<radialGradient id="SVGID_26_" cx="31.8394" cy="64.0996" r="0.176" gradientUnits="userSpaceOnUse">
		<stop  offset="0" style="stop-color:#BDDFF3"/>
		<stop  offset="0.4263" style="stop-color:#6DB0E3"/>
		<stop  offset="0.9842" style="stop-color:#496796"/>
		<stop  offset="1" style="stop-color:#496796"/>
	</radialGradient>
	<path fill="url(#SVGID_26_)" d="M32.072,64.135c-0.149-0.04-0.316-0.091-0.465-0.124c0.017,0.033,0.067,0.084,0.149,0.124
		C31.989,64.202,32.055,64.21,32.072,64.135z"/>
	<radialGradient id="SVGID_27_" cx="36.2617" cy="24.7373" r="0.1124" gradientUnits="userSpaceOnUse">
		<stop  offset="0" style="stop-color:#BDDFF3"/>
		<stop  offset="0.4263" style="stop-color:#6DB0E3"/>
		<stop  offset="0.9842" style="stop-color:#496796"/>
		<stop  offset="1" style="stop-color:#496796"/>
	</radialGradient>
	<polygon fill="url(#SVGID_27_)" points="36.395,24.75 36.178,24.65 36.128,24.733 36.361,24.825 	"/>
	<radialGradient id="SVGID_28_" cx="35.8086" cy="73.3477" r="0.4373" gradientUnits="userSpaceOnUse">
		<stop  offset="0" style="stop-color:#BDDFF3"/>
		<stop  offset="0.4263" style="stop-color:#6DB0E3"/>
		<stop  offset="0.9842" style="stop-color:#496796"/>
		<stop  offset="1" style="stop-color:#496796"/>
	</radialGradient>
	<path fill="url(#SVGID_28_)" d="M35.33,73.169c-0.017,0.108-0.133,0.249,0,0.366c0.299,0.233,0.699,0.033,0.999-0.05
		c0.016-0.116,0.033-0.217,0.016-0.316c-0.016-0.05-0.066-0.083-0.133-0.108c-0.033-0.009-0.083-0.009-0.1-0.009
		c-0.183,0-0.233,0.117-0.3,0.233c-0.066,0.133-0.133,0.267-0.333,0.233C35.563,73.353,35.479,73.235,35.33,73.169z"/>
	<radialGradient id="SVGID_29_" cx="31.8379" cy="25.8252" r="0.2962" gradientUnits="userSpaceOnUse">
		<stop  offset="0" style="stop-color:#BDDFF3"/>
		<stop  offset="0.4263" style="stop-color:#6DB0E3"/>
		<stop  offset="0.9842" style="stop-color:#496796"/>
		<stop  offset="1" style="stop-color:#496796"/>
	</radialGradient>
	<path fill="url(#SVGID_29_)" d="M32.122,25.813c0.05-0.199,0.033-0.266-0.017-0.266c-0.133,0-0.465,0.399-0.582,0.465
		C31.707,26.188,31.889,26.097,32.122,25.813z"/>
	<radialGradient id="SVGID_30_" cx="31.0918" cy="44.5254" r="0.0567" gradientUnits="userSpaceOnUse">
		<stop  offset="0" style="stop-color:#BDDFF3"/>
		<stop  offset="0.4263" style="stop-color:#6DB0E3"/>
		<stop  offset="0.9842" style="stop-color:#496796"/>
		<stop  offset="1" style="stop-color:#496796"/>
	</radialGradient>
	<polygon fill="url(#SVGID_30_)" points="31.092,44.446 31.075,44.604 31.108,44.554 	"/>
	<radialGradient id="SVGID_31_" cx="31.7002" cy="27.7168" r="0.3504" gradientUnits="userSpaceOnUse">
		<stop  offset="0" style="stop-color:#BDDFF3"/>
		<stop  offset="0.4263" style="stop-color:#6DB0E3"/>
		<stop  offset="0.9842" style="stop-color:#496796"/>
		<stop  offset="1" style="stop-color:#496796"/>
	</radialGradient>
	<path fill="url(#SVGID_31_)" d="M32.022,27.343c-0.398,0.084-0.498,0.416-0.647,0.748C31.657,27.759,32.072,27.609,32.022,27.343z"
		/>
	<radialGradient id="SVGID_32_" cx="31.4746" cy="29.1421" r="0.1603" gradientUnits="userSpaceOnUse">
		<stop  offset="0" style="stop-color:#BDDFF3"/>
		<stop  offset="0.4263" style="stop-color:#6DB0E3"/>
		<stop  offset="0.9842" style="stop-color:#496796"/>
		<stop  offset="1" style="stop-color:#496796"/>
	</radialGradient>
	<polygon fill="url(#SVGID_32_)" points="31.574,29.346 31.524,29.088 31.375,28.938 	"/>
	<radialGradient id="SVGID_33_" cx="30.834" cy="44.4746" r="0.0897" gradientUnits="userSpaceOnUse">
		<stop  offset="0" style="stop-color:#BDDFF3"/>
		<stop  offset="0.4263" style="stop-color:#6DB0E3"/>
		<stop  offset="0.9842" style="stop-color:#496796"/>
		<stop  offset="1" style="stop-color:#496796"/>
	</radialGradient>
	<polygon fill="url(#SVGID_33_)" points="30.892,44.546 30.809,44.362 30.775,44.587 	"/>
	<radialGradient id="SVGID_34_" cx="32.9692" cy="48.6934" r="0.0802" gradientUnits="userSpaceOnUse">
		<stop  offset="0" style="stop-color:#BDDFF3"/>
		<stop  offset="0.4263" style="stop-color:#6DB0E3"/>
		<stop  offset="0.9842" style="stop-color:#496796"/>
		<stop  offset="1" style="stop-color:#496796"/>
	</radialGradient>
	<path fill="url(#SVGID_34_)" d="M32.936,48.802c0,0,0.033-0.066,0.066-0.082c0-0.101-0.016-0.135-0.016-0.135
		C32.969,48.585,32.953,48.72,32.936,48.802z"/>
	<radialGradient id="SVGID_35_" cx="28.9824" cy="30.1772" r="0.1461" gradientUnits="userSpaceOnUse">
		<stop  offset="0" style="stop-color:#BDDFF3"/>
		<stop  offset="0.4263" style="stop-color:#6DB0E3"/>
		<stop  offset="0.9842" style="stop-color:#496796"/>
		<stop  offset="1" style="stop-color:#496796"/>
	</radialGradient>
	<path fill="url(#SVGID_35_)" d="M29.031,30.127c-0.133-0.065-0.184-0.091-0.2-0.091c0,0,0.216,0.149,0.216,0.282
		C29.13,30.252,29.197,30.235,29.031,30.127z"/>
	<radialGradient id="SVGID_36_" cx="77.5566" cy="61.6172" r="0.042" gradientUnits="userSpaceOnUse">
		<stop  offset="0" style="stop-color:#BDDFF3"/>
		<stop  offset="0.4263" style="stop-color:#6DB0E3"/>
		<stop  offset="0.9842" style="stop-color:#496796"/>
		<stop  offset="1" style="stop-color:#496796"/>
	</radialGradient>
	<polygon fill="url(#SVGID_36_)" points="77.515,61.643 77.515,61.651 77.515,61.659 77.531,61.651 77.549,61.626 77.599,61.584 
		77.582,61.576 77.531,61.617 	"/>
	<radialGradient id="SVGID_37_" cx="78.2217" cy="62" r="0.1553" gradientUnits="userSpaceOnUse">
		<stop  offset="0" style="stop-color:#BDDFF3"/>
		<stop  offset="0.4263" style="stop-color:#6DB0E3"/>
		<stop  offset="0.9842" style="stop-color:#496796"/>
		<stop  offset="1" style="stop-color:#496796"/>
	</radialGradient>
	<path fill="url(#SVGID_37_)" d="M78.213,61.867l-0.134,0.3c0.084-0.084,0.185-0.184,0.285-0.268
		c-0.051-0.032-0.084-0.049-0.117-0.065C78.23,61.834,78.23,61.851,78.213,61.867z"/>
	<radialGradient id="SVGID_38_" cx="77.6152" cy="61.543" r="0.013" gradientUnits="userSpaceOnUse">
		<stop  offset="0" style="stop-color:#BDDFF3"/>
		<stop  offset="0.4263" style="stop-color:#6DB0E3"/>
		<stop  offset="0.9842" style="stop-color:#496796"/>
		<stop  offset="1" style="stop-color:#496796"/>
	</radialGradient>
	<path fill="url(#SVGID_38_)" d="M77.615,61.551h0.017c-0.017,0-0.017-0.017-0.033-0.017v0.017H77.615z"/>
	<radialGradient id="SVGID_39_" cx="77.6816" cy="61.4844" r="0.0337" gradientUnits="userSpaceOnUse">
		<stop  offset="0" style="stop-color:#BDDFF3"/>
		<stop  offset="0.4263" style="stop-color:#6DB0E3"/>
		<stop  offset="0.9842" style="stop-color:#496796"/>
		<stop  offset="1" style="stop-color:#496796"/>
	</radialGradient>
	<path fill="url(#SVGID_39_)" d="M77.648,61.5l0.018,0.018l0.017-0.018l0.033-0.032c0-0.017-0.017-0.017-0.017-0.017L77.648,61.5z"
		/>
	<radialGradient id="SVGID_40_" cx="78.7959" cy="62.4531" r="0.0385" gradientUnits="userSpaceOnUse">
		<stop  offset="0" style="stop-color:#BDDFF3"/>
		<stop  offset="0.4263" style="stop-color:#6DB0E3"/>
		<stop  offset="0.9842" style="stop-color:#496796"/>
		<stop  offset="1" style="stop-color:#496796"/>
	</radialGradient>
	<polygon fill="url(#SVGID_40_)" points="78.78,62.497 78.797,62.479 78.812,62.43 78.828,62.408 78.812,62.408 78.764,62.497 	"/>
	<radialGradient id="SVGID_41_" cx="78.5205" cy="57.9727" r="0.0896" gradientUnits="userSpaceOnUse">
		<stop  offset="0" style="stop-color:#BDDFF3"/>
		<stop  offset="0.4263" style="stop-color:#6DB0E3"/>
		<stop  offset="0.9842" style="stop-color:#496796"/>
		<stop  offset="1" style="stop-color:#496796"/>
	</radialGradient>
	<polygon fill="url(#SVGID_41_)" points="78.579,58.052 78.479,57.86 78.462,58.085 	"/>
	<radialGradient id="SVGID_42_" cx="78.7715" cy="58.0215" r="0.057" gradientUnits="userSpaceOnUse">
		<stop  offset="0" style="stop-color:#BDDFF3"/>
		<stop  offset="0.4263" style="stop-color:#6DB0E3"/>
		<stop  offset="0.9842" style="stop-color:#496796"/>
		<stop  offset="1" style="stop-color:#496796"/>
	</radialGradient>
	<polygon fill="url(#SVGID_42_)" points="78.764,58.102 78.78,58.052 78.78,57.942 	"/>
	<radialGradient id="SVGID_43_" cx="78.8359" cy="62.375" r="0.0083" gradientUnits="userSpaceOnUse">
		<stop  offset="0" style="stop-color:#BDDFF3"/>
		<stop  offset="0.4263" style="stop-color:#6DB0E3"/>
		<stop  offset="0.9842" style="stop-color:#496796"/>
		<stop  offset="1" style="stop-color:#496796"/>
	</radialGradient>
	<path fill="url(#SVGID_43_)" d="M78.845,62.383v-0.008l-0.017-0.009c0,0.009,0,0.009,0,0.009L78.845,62.383z"/>
	<radialGradient id="SVGID_44_" cx="84.4883" cy="51.8965" r="0.0965" gradientUnits="userSpaceOnUse">
		<stop  offset="0" style="stop-color:#BDDFF3"/>
		<stop  offset="0.4263" style="stop-color:#6DB0E3"/>
		<stop  offset="0.9842" style="stop-color:#496796"/>
		<stop  offset="1" style="stop-color:#496796"/>
	</radialGradient>
	<path fill="url(#SVGID_44_)" d="M84.446,52.026c0.017-0.067,0.051-0.133,0.067-0.2c0-0.017,0.017-0.033,0.017-0.059
		C84.497,51.86,84.463,51.942,84.446,52.026z"/>
	<radialGradient id="SVGID_45_" cx="74.2998" cy="46.3418" r="0.1286" gradientUnits="userSpaceOnUse">
		<stop  offset="0" style="stop-color:#BDDFF3"/>
		<stop  offset="0.4263" style="stop-color:#6DB0E3"/>
		<stop  offset="0.9842" style="stop-color:#496796"/>
		<stop  offset="1" style="stop-color:#496796"/>
	</radialGradient>
	<path fill="url(#SVGID_45_)" d="M74.374,46.175l-0.148,0.333c0.048-0.017,0.099-0.017,0.148-0.033V46.175z"/>
	<radialGradient id="SVGID_46_" cx="86.7891" cy="45.5601" r="2.8397" gradientUnits="userSpaceOnUse">
		<stop  offset="0" style="stop-color:#BDDFF3"/>
		<stop  offset="0.4263" style="stop-color:#6DB0E3"/>
		<stop  offset="0.9842" style="stop-color:#496796"/>
		<stop  offset="1" style="stop-color:#496796"/>
	</radialGradient>
	<path fill="url(#SVGID_46_)" d="M86.69,49.549c0.218-0.78,0.399-1.562,0.564-2.344c-0.099-1.363-0.33-2.692-0.713-3.955
		c-0.05-0.582-0.134-1.081-0.216-1.679c-0.017,0.73,0.048,1.396,0.148,2.019c0,0.075-0.017,0.141-0.033,0.191
		c0.067,0.183,0.084,0.283,0.115,0.366C86.492,45.561,86.623,47.464,86.69,49.549z"/>
	<radialGradient id="SVGID_47_" cx="85.1953" cy="38.3999" r="0.4527" gradientUnits="userSpaceOnUse">
		<stop  offset="0" style="stop-color:#BDDFF3"/>
		<stop  offset="0.4263" style="stop-color:#6DB0E3"/>
		<stop  offset="0.9842" style="stop-color:#496796"/>
		<stop  offset="1" style="stop-color:#496796"/>
	</radialGradient>
	<path fill="url(#SVGID_47_)" d="M85.76,38.563c-0.198,0.059-0.332-0.083-0.483-0.217c-0.098-0.124-0.215-0.249-0.349-0.249
		c-0.084,0-0.182,0.066-0.297,0.232C85.511,38.431,84.961,38.945,85.76,38.563z"/>
	<radialGradient id="SVGID_48_" cx="84.4307" cy="58.4336" r="3.5146" gradientUnits="userSpaceOnUse">
		<stop  offset="0" style="stop-color:#BDDFF3"/>
		<stop  offset="0.4263" style="stop-color:#6DB0E3"/>
		<stop  offset="0.9842" style="stop-color:#496796"/>
		<stop  offset="1" style="stop-color:#496796"/>
	</radialGradient>
	<path fill="url(#SVGID_48_)" d="M82.951,63.179c0.266-0.516,0.548-1.046,0.797-1.586c0.084-0.158,0.15-0.334,0.232-0.492
		l-0.099,0.351c0.414,0.366,0.782,0.766,1.163,1.179c0.066-0.255,0.134-0.497,0.215-0.779c0.218-0.858,0.383-1.688,0.483-2.478
		c0.033-0.35,0.05-0.682,0.033-0.98c-0.067-0.051-0.15-0.084-0.215-0.133c-0.168,0-0.35-0.018-0.517-0.051
		c0.05-0.141,0.1-0.283,0.134-0.432c0.282-1.38,0.497-2.759,0.731-4.089c-0.033,0.05-0.05,0.126-0.084,0.182
		c-0.349,1.165-0.715,2.677-1.08,3.881c-0.316,1.306-0.699,2.586-1.18,3.85l-0.185,0.091l0.067-0.016l0.117-0.066
		c-0.033,0.124-0.084,0.241-0.134,0.374C83.284,62.383,83.117,62.796,82.951,63.179z"/>
	<radialGradient id="SVGID_49_" cx="83.9473" cy="38.2393" r="0.1078" gradientUnits="userSpaceOnUse">
		<stop  offset="0" style="stop-color:#BDDFF3"/>
		<stop  offset="0.4263" style="stop-color:#6DB0E3"/>
		<stop  offset="0.9842" style="stop-color:#496796"/>
		<stop  offset="1" style="stop-color:#496796"/>
	</radialGradient>
	<polygon fill="url(#SVGID_49_)" points="83.865,38.164 83.815,38.231 84.047,38.314 84.08,38.247 	"/>
	<radialGradient id="SVGID_50_" cx="80.3906" cy="63.2617" r="0.0528" gradientUnits="userSpaceOnUse">
		<stop  offset="0" style="stop-color:#BDDFF3"/>
		<stop  offset="0.4263" style="stop-color:#6DB0E3"/>
		<stop  offset="0.9842" style="stop-color:#496796"/>
		<stop  offset="1" style="stop-color:#496796"/>
	</radialGradient>
	<polygon fill="url(#SVGID_50_)" points="80.373,63.262 80.457,63.296 80.373,63.229 80.356,63.245 80.323,63.245 80.356,63.262 	
		"/>
	<radialGradient id="SVGID_51_" cx="79.4512" cy="48.2778" r="0.0185" gradientUnits="userSpaceOnUse">
		<stop  offset="0" style="stop-color:#BDDFF3"/>
		<stop  offset="0.4263" style="stop-color:#6DB0E3"/>
		<stop  offset="0.9842" style="stop-color:#496796"/>
		<stop  offset="1" style="stop-color:#496796"/>
	</radialGradient>
	<path fill="url(#SVGID_51_)" d="M79.442,48.286c0,0,0,0,0,0.017c0-0.017,0-0.033,0.017-0.05
		C79.442,48.27,79.442,48.286,79.442,48.286z"/>
	<radialGradient id="SVGID_52_" cx="79.3496" cy="48.5283" r="0.1773" gradientUnits="userSpaceOnUse">
		<stop  offset="0" style="stop-color:#BDDFF3"/>
		<stop  offset="0.4263" style="stop-color:#6DB0E3"/>
		<stop  offset="0.9842" style="stop-color:#496796"/>
		<stop  offset="1" style="stop-color:#496796"/>
	</radialGradient>
	<path fill="url(#SVGID_52_)" d="M79.376,48.461c0.017-0.059-0.017,0.024,0.066-0.158c-0.363,0.732-0.165,0.383,0.017,0.258
		C79.359,48.544,79.359,48.511,79.376,48.461z"/>
	<radialGradient id="SVGID_53_" cx="79.543" cy="48.5425" r="0.0617" gradientUnits="userSpaceOnUse">
		<stop  offset="0" style="stop-color:#BDDFF3"/>
		<stop  offset="0.4263" style="stop-color:#6DB0E3"/>
		<stop  offset="0.9842" style="stop-color:#496796"/>
		<stop  offset="1" style="stop-color:#496796"/>
	</radialGradient>
	<path fill="url(#SVGID_53_)" d="M79.56,48.519c-0.033,0-0.066,0.017-0.101,0.042c0.034,0.008,0.101,0.008,0.168,0
		C79.61,48.535,79.576,48.519,79.56,48.519z"/>
	<radialGradient id="SVGID_54_" cx="79.8438" cy="62.9629" r="0.1414" gradientUnits="userSpaceOnUse">
		<stop  offset="0" style="stop-color:#BDDFF3"/>
		<stop  offset="0.4263" style="stop-color:#6DB0E3"/>
		<stop  offset="0.9842" style="stop-color:#496796"/>
		<stop  offset="1" style="stop-color:#496796"/>
	</radialGradient>
	<path fill="url(#SVGID_54_)" d="M79.977,63.029v-0.034c-0.067-0.049-0.151-0.116-0.234-0.166l-0.031,0.017l-0.018,0.033
		c0.199,0.142,0.3,0.217,0.3,0.217s0-0.017-0.034-0.033v-0.009L79.977,63.029z"/>
	<radialGradient id="SVGID_55_" cx="79.6436" cy="62.8877" r="0.0461" gradientUnits="userSpaceOnUse">
		<stop  offset="0" style="stop-color:#BDDFF3"/>
		<stop  offset="0.4263" style="stop-color:#6DB0E3"/>
		<stop  offset="0.9842" style="stop-color:#496796"/>
		<stop  offset="1" style="stop-color:#496796"/>
	</radialGradient>
	<path fill="url(#SVGID_55_)" d="M79.61,62.879h-0.017c0.033,0.018,0.05,0.034,0.066,0.051l0.017-0.017l0.017-0.017v-0.018
		c-0.017,0-0.033-0.017-0.05-0.033L79.61,62.879z"/>
	<radialGradient id="SVGID_56_" cx="79.6348" cy="62.8086" r="0.0396" gradientUnits="userSpaceOnUse">
		<stop  offset="0" style="stop-color:#BDDFF3"/>
		<stop  offset="0.4263" style="stop-color:#6DB0E3"/>
		<stop  offset="0.9842" style="stop-color:#496796"/>
		<stop  offset="1" style="stop-color:#496796"/>
	</radialGradient>
	<path fill="url(#SVGID_56_)" d="M79.66,62.771l-0.066,0.058c0.033,0,0.033,0.017,0.05,0.017l0.033-0.05
		C79.677,62.779,79.66,62.779,79.66,62.771z"/>
	<radialGradient id="SVGID_57_" cx="79.9844" cy="63" r="0.0068" gradientUnits="userSpaceOnUse">
		<stop  offset="0" style="stop-color:#BDDFF3"/>
		<stop  offset="0.4263" style="stop-color:#6DB0E3"/>
		<stop  offset="0.9842" style="stop-color:#496796"/>
		<stop  offset="1" style="stop-color:#496796"/>
	</radialGradient>
	<path fill="url(#SVGID_57_)" d="M79.993,62.995h-0.017c0.017,0.009,0.017,0.009,0.017,0.009V62.995z"/>
	<radialGradient id="SVGID_58_" cx="80.8652" cy="61.9795" r="0.027" gradientUnits="userSpaceOnUse">
		<stop  offset="0" style="stop-color:#BDDFF3"/>
		<stop  offset="0.4263" style="stop-color:#6DB0E3"/>
		<stop  offset="0.9842" style="stop-color:#496796"/>
		<stop  offset="1" style="stop-color:#496796"/>
	</radialGradient>
	<polygon fill="url(#SVGID_58_)" points="80.89,62 80.84,61.95 80.856,62.009 	"/>
	<radialGradient id="SVGID_59_" cx="79.9512" cy="62.793" r="0.0841" gradientUnits="userSpaceOnUse">
		<stop  offset="0" style="stop-color:#BDDFF3"/>
		<stop  offset="0.4263" style="stop-color:#6DB0E3"/>
		<stop  offset="0.9842" style="stop-color:#496796"/>
		<stop  offset="1" style="stop-color:#496796"/>
	</radialGradient>
	<polygon fill="url(#SVGID_59_)" points="79.893,62.796 79.926,62.896 80.01,62.688 	"/>
	<radialGradient id="SVGID_60_" cx="78.8779" cy="62.291" r="0.0319" gradientUnits="userSpaceOnUse">
		<stop  offset="0" style="stop-color:#BDDFF3"/>
		<stop  offset="0.4263" style="stop-color:#6DB0E3"/>
		<stop  offset="0.9842" style="stop-color:#496796"/>
		<stop  offset="1" style="stop-color:#496796"/>
	</radialGradient>
	<path fill="url(#SVGID_60_)" d="M78.895,62.266c0,0,0,0,0-0.016c-0.017,0.032-0.033,0.05-0.033,0.074v0.009
		C78.878,62.308,78.895,62.291,78.895,62.266z"/>
	<radialGradient id="SVGID_61_" cx="80.6406" cy="62.1875" r="0.0771" gradientUnits="userSpaceOnUse">
		<stop  offset="0" style="stop-color:#BDDFF3"/>
		<stop  offset="0.4263" style="stop-color:#6DB0E3"/>
		<stop  offset="0.9842" style="stop-color:#496796"/>
		<stop  offset="1" style="stop-color:#496796"/>
	</radialGradient>
	<path fill="url(#SVGID_61_)" d="M80.607,62.291c0,0,0.033-0.058,0.067-0.074c0-0.101-0.017-0.134-0.017-0.134
		C80.641,62.083,80.624,62.217,80.607,62.291z"/>
	<radialGradient id="SVGID_62_" cx="80.3379" cy="63.0049" r="0.0676" gradientUnits="userSpaceOnUse">
		<stop  offset="0" style="stop-color:#BDDFF3"/>
		<stop  offset="0.4263" style="stop-color:#6DB0E3"/>
		<stop  offset="0.9842" style="stop-color:#496796"/>
		<stop  offset="1" style="stop-color:#496796"/>
	</radialGradient>
	<path fill="url(#SVGID_62_)" d="M80.424,63.029c-0.018-0.051-0.051-0.051-0.067-0.051c-0.033,0-0.05,0-0.081-0.016
		c-0.067,0.1,0.017,0.091,0.081,0.074C80.373,63.037,80.406,63.029,80.424,63.029z"/>
	<radialGradient id="SVGID_63_" cx="79.4922" cy="61.1094" r="0.0401" gradientUnits="userSpaceOnUse">
		<stop  offset="0" style="stop-color:#BDDFF3"/>
		<stop  offset="0.4263" style="stop-color:#6DB0E3"/>
		<stop  offset="0.9842" style="stop-color:#496796"/>
		<stop  offset="1" style="stop-color:#496796"/>
	</radialGradient>
	<polygon fill="url(#SVGID_63_)" points="79.477,61.135 79.543,61.084 79.442,61.101 	"/>
	<radialGradient id="SVGID_64_" cx="79.876" cy="47.3721" r="0.652" gradientUnits="userSpaceOnUse">
		<stop  offset="0" style="stop-color:#BDDFF3"/>
		<stop  offset="0.4263" style="stop-color:#6DB0E3"/>
		<stop  offset="0.9842" style="stop-color:#496796"/>
		<stop  offset="1" style="stop-color:#496796"/>
	</radialGradient>
	<path fill="url(#SVGID_64_)" d="M80.275,46.541c-0.117,0.225-0.216,0.449-0.35,0.681c-0.134,0.275-0.282,0.649-0.449,0.981
		c0.167-0.323,0.416-0.848,0.799-1.645V46.541z"/>
	<radialGradient id="SVGID_65_" cx="79.585" cy="62.8789" r="0.0139" gradientUnits="userSpaceOnUse">
		<stop  offset="0" style="stop-color:#BDDFF3"/>
		<stop  offset="0.4263" style="stop-color:#6DB0E3"/>
		<stop  offset="0.9842" style="stop-color:#496796"/>
		<stop  offset="1" style="stop-color:#496796"/>
	</radialGradient>
	<path fill="url(#SVGID_65_)" d="M79.576,62.879c0.008,0.009,0.008,0,0.018,0.018v-0.018c0,0,0,0-0.018-0.017V62.879z"/>
	<radialGradient id="SVGID_66_" cx="21.8691" cy="30.6436" r="15.4405" gradientUnits="userSpaceOnUse">
		<stop  offset="0" style="stop-color:#BDDFF3"/>
		<stop  offset="0.4263" style="stop-color:#6DB0E3"/>
		<stop  offset="0.9842" style="stop-color:#496796"/>
		<stop  offset="1" style="stop-color:#496796"/>
	</radialGradient>
	<path fill="url(#SVGID_66_)" d="M12.443,47.588c0.514-2.559,0.98-6.764,3.374-13.248c0.748-1.795,1.512-3.34,2.144-4.653
		c0.333-0.624,0.632-1.189,0.915-1.729c-0.449,0.799-1.189,2.144-2.443,4.389l0.05-0.133l0.1-0.233l0.383-0.914
		c0.997-2.377,1.861-4.147,2.776-5.834c1.03-1.779,1.579-2.993,3.739-5.444c1.979-2.269,5.053-5.21,9.541-7.919
		c-4.687,2.551-11.269,8.427-14.228,12.814c-0.731,1.031-1.429,2.095-2.11,3.175c0.266-0.465,0.499-0.906,0.714-1.288l-0.066,0.075
		L17.08,27.06c-1.43,2.21-2.693,4.604-3.724,6.981c-1.147,2.776-1.347,3.74-1.796,5.386c-0.365,1.496-0.631,2.958-0.797,4.354
		c-0.116,1.846,0,3.39,0.316,4.669C11.378,49.716,12.06,50.032,12.443,47.588z"/>
	<radialGradient id="SVGID_67_" cx="29.0723" cy="78.8301" r="0.0181" gradientUnits="userSpaceOnUse">
		<stop  offset="0" style="stop-color:#BDDFF3"/>
		<stop  offset="0.4263" style="stop-color:#6DB0E3"/>
		<stop  offset="0.9842" style="stop-color:#496796"/>
		<stop  offset="1" style="stop-color:#496796"/>
	</radialGradient>
	<line fill="url(#SVGID_67_)" x1="29.047" y1="78.821" x2="29.097" y2="78.838"/>
	<radialGradient id="SVGID_68_" cx="29.2856" cy="78.9375" r="0.1507" gradientUnits="userSpaceOnUse">
		<stop  offset="0" style="stop-color:#BDDFF3"/>
		<stop  offset="0.4263" style="stop-color:#6DB0E3"/>
		<stop  offset="0.9842" style="stop-color:#496796"/>
		<stop  offset="1" style="stop-color:#496796"/>
	</radialGradient>
	<path fill="url(#SVGID_68_)" d="M29.097,78.838c0.415,0.223,0.432,0.229,0.315,0.158l-0.298-0.158H29.097z"/>
	<radialGradient id="SVGID_69_" cx="17.3457" cy="70.1143" r="0.0148" gradientUnits="userSpaceOnUse">
		<stop  offset="0" style="stop-color:#BDDFF3"/>
		<stop  offset="0.4263" style="stop-color:#6DB0E3"/>
		<stop  offset="0.9842" style="stop-color:#496796"/>
		<stop  offset="1" style="stop-color:#496796"/>
	</radialGradient>
	<path fill="url(#SVGID_69_)" d="M17.329,70.11l0.034,0.017c-0.017-0.009-0.017-0.017-0.034-0.025V70.11z"/>
	<radialGradient id="SVGID_70_" cx="16.2065" cy="70.4795" r="0.2789" gradientUnits="userSpaceOnUse">
		<stop  offset="0" style="stop-color:#BDDFF3"/>
		<stop  offset="0.4263" style="stop-color:#6DB0E3"/>
		<stop  offset="0.9842" style="stop-color:#496796"/>
		<stop  offset="1" style="stop-color:#496796"/>
	</radialGradient>
	<path fill="url(#SVGID_70_)" d="M15.966,70.167c0,0,0.183,0.242,0.481,0.625v-0.017C16.099,70.344,15.966,70.167,15.966,70.167z"/>
	<radialGradient id="SVGID_71_" cx="30.5508" cy="47.0059" r="0.0984" gradientUnits="userSpaceOnUse">
		<stop  offset="0" style="stop-color:#BDDFF3"/>
		<stop  offset="0.4263" style="stop-color:#6DB0E3"/>
		<stop  offset="0.9842" style="stop-color:#496796"/>
		<stop  offset="1" style="stop-color:#496796"/>
	</radialGradient>
	<path fill="url(#SVGID_71_)" d="M30.592,47.139c-0.017-0.1-0.067-0.165-0.083-0.266"/>
	<radialGradient id="SVGID_72_" cx="16.4556" cy="70.8047" r="0.0102" gradientUnits="userSpaceOnUse">
		<stop  offset="0" style="stop-color:#BDDFF3"/>
		<stop  offset="0.4263" style="stop-color:#6DB0E3"/>
		<stop  offset="0.9842" style="stop-color:#496796"/>
		<stop  offset="1" style="stop-color:#496796"/>
	</radialGradient>
	<path fill="url(#SVGID_72_)" d="M16.447,70.792c0.017,0.008,0.017,0.017,0.017,0.024V70.8L16.447,70.792z"/>
	<radialGradient id="SVGID_73_" cx="29.5205" cy="79.0527" r="0.0862" gradientUnits="userSpaceOnUse">
		<stop  offset="0" style="stop-color:#BDDFF3"/>
		<stop  offset="0.4263" style="stop-color:#6DB0E3"/>
		<stop  offset="0.9842" style="stop-color:#496796"/>
		<stop  offset="1" style="stop-color:#496796"/>
	</radialGradient>
	<path fill="url(#SVGID_73_)" d="M29.529,79.061c0.033,0.016,0.075,0.032,0.1,0.049c-0.05-0.025-0.166-0.088-0.216-0.113
		L29.529,79.061z"/>
	<radialGradient id="SVGID_74_" cx="30.2354" cy="44.7217" r="0.6923" gradientUnits="userSpaceOnUse">
		<stop  offset="0" style="stop-color:#BDDFF3"/>
		<stop  offset="0.4263" style="stop-color:#6DB0E3"/>
		<stop  offset="0.9842" style="stop-color:#496796"/>
		<stop  offset="1" style="stop-color:#496796"/>
	</radialGradient>
	<path fill="url(#SVGID_74_)" d="M30.342,44.479c-0.083-0.223-0.165-0.464-0.214-0.73c0.051,0.64,0.122,1.295,0.206,1.946
		c-0.04-0.402-0.062-0.809-0.075-1.199L30.342,44.479z"/>
	<radialGradient id="SVGID_75_" cx="30.4219" cy="46.2842" r="0.421" gradientUnits="userSpaceOnUse">
		<stop  offset="0" style="stop-color:#BDDFF3"/>
		<stop  offset="0.4263" style="stop-color:#6DB0E3"/>
		<stop  offset="0.9842" style="stop-color:#496796"/>
		<stop  offset="1" style="stop-color:#496796"/>
	</radialGradient>
	<path fill="url(#SVGID_75_)" d="M30.509,46.873c-0.072-0.384-0.124-0.782-0.175-1.178C30.374,46.099,30.43,46.499,30.509,46.873z"
		/>
	<radialGradient id="SVGID_76_" cx="27.6846" cy="29.562" r="0.0059" gradientUnits="userSpaceOnUse">
		<stop  offset="0" style="stop-color:#BDDFF3"/>
		<stop  offset="0.4263" style="stop-color:#6DB0E3"/>
		<stop  offset="0.9842" style="stop-color:#496796"/>
		<stop  offset="1" style="stop-color:#496796"/>
	</radialGradient>
	<path fill="url(#SVGID_76_)" d="M27.685,29.554c0,0.004,0,0.008,0,0.017"/>
	<radialGradient id="SVGID_77_" cx="72.2207" cy="14.7275" r="0.0055" gradientUnits="userSpaceOnUse">
		<stop  offset="0" style="stop-color:#BDDFF3"/>
		<stop  offset="0.4263" style="stop-color:#6DB0E3"/>
		<stop  offset="0.9842" style="stop-color:#496796"/>
		<stop  offset="1" style="stop-color:#496796"/>
	</radialGradient>
	<path fill="url(#SVGID_77_)" d="M72.212,14.728c0.01,0,0.015,0,0.017,0"/>
	<radialGradient id="SVGID_78_" cx="72.2363" cy="14.7354" r="0.0085" gradientUnits="userSpaceOnUse">
		<stop  offset="0" style="stop-color:#BDDFF3"/>
		<stop  offset="0.4263" style="stop-color:#6DB0E3"/>
		<stop  offset="0.9842" style="stop-color:#496796"/>
		<stop  offset="1" style="stop-color:#496796"/>
	</radialGradient>
	<path fill="url(#SVGID_78_)" d="M72.245,14.728c-0.007,0-0.012,0-0.017,0l0.017,0.016C72.245,14.744,72.245,14.744,72.245,14.728z"
		/>
	<radialGradient id="SVGID_79_" cx="27.147" cy="30.1631" r="0.0196" gradientUnits="userSpaceOnUse">
		<stop  offset="0" style="stop-color:#BDDFF3"/>
		<stop  offset="0.4263" style="stop-color:#6DB0E3"/>
		<stop  offset="0.9842" style="stop-color:#496796"/>
		<stop  offset="1" style="stop-color:#496796"/>
	</radialGradient>
	<path fill="url(#SVGID_79_)" d="M27.152,30.144c0,0.009,0-0.008,0-0.008C27.143,30.193,27.135,30.219,27.152,30.144z"/>
	<radialGradient id="SVGID_80_" cx="32.3838" cy="31.4863" r="0.0223" gradientUnits="userSpaceOnUse">
		<stop  offset="0" style="stop-color:#BDDFF3"/>
		<stop  offset="0.4263" style="stop-color:#6DB0E3"/>
		<stop  offset="0.9842" style="stop-color:#496796"/>
		<stop  offset="1" style="stop-color:#496796"/>
	</radialGradient>
	<path fill="url(#SVGID_80_)" d="M32.372,31.457c0.017,0.017,0.017,0.042,0.017,0.058h0.008
		C32.388,31.507,32.388,31.482,32.372,31.457z"/>
	<radialGradient id="SVGID_81_" cx="34.0176" cy="43.8232" r="0.0059" gradientUnits="userSpaceOnUse">
		<stop  offset="0" style="stop-color:#BDDFF3"/>
		<stop  offset="0.4263" style="stop-color:#6DB0E3"/>
		<stop  offset="0.9842" style="stop-color:#496796"/>
		<stop  offset="1" style="stop-color:#496796"/>
	</radialGradient>
	<line fill="url(#SVGID_81_)" x1="34.018" y1="43.815" x2="34.018" y2="43.832"/>
	<radialGradient id="SVGID_82_" cx="80.6562" cy="37.6904" r="0.4582" gradientUnits="userSpaceOnUse">
		<stop  offset="0" style="stop-color:#BDDFF3"/>
		<stop  offset="0.4263" style="stop-color:#6DB0E3"/>
		<stop  offset="0.9842" style="stop-color:#496796"/>
		<stop  offset="1" style="stop-color:#496796"/>
	</radialGradient>
	<path fill="url(#SVGID_82_)" d="M80.974,37.573c-0.201-0.158-0.416-0.307-0.634-0.448c0.066,0.108,0.117,0.207,0.184,0.307
		l-0.134,0.823C80.574,38.031,80.789,37.781,80.974,37.573z"/>
	<radialGradient id="SVGID_83_" cx="71.2158" cy="38.5713" r="0.1142" gradientUnits="userSpaceOnUse">
		<stop  offset="0" style="stop-color:#BDDFF3"/>
		<stop  offset="0.4263" style="stop-color:#6DB0E3"/>
		<stop  offset="0.9842" style="stop-color:#496796"/>
		<stop  offset="1" style="stop-color:#496796"/>
	</radialGradient>
	<path fill="url(#SVGID_83_)" d="M71.083,38.663c0.017,0,0.05,0,0.067,0c0.081-0.041,0.098-0.133,0.198-0.183
		C71.248,38.546,71.167,38.605,71.083,38.663z"/>
	<radialGradient id="SVGID_84_" cx="76.627" cy="31.2739" r="0.2454" gradientUnits="userSpaceOnUse">
		<stop  offset="0" style="stop-color:#BDDFF3"/>
		<stop  offset="0.4263" style="stop-color:#6DB0E3"/>
		<stop  offset="0.9842" style="stop-color:#496796"/>
		<stop  offset="1" style="stop-color:#496796"/>
	</radialGradient>
	<polygon fill="url(#SVGID_84_)" points="76.752,31.557 76.584,30.95 76.503,30.983 76.685,31.598 	"/>
	<radialGradient id="SVGID_85_" cx="77.0176" cy="32.5293" r="0.0943" gradientUnits="userSpaceOnUse">
		<stop  offset="0" style="stop-color:#BDDFF3"/>
		<stop  offset="0.4263" style="stop-color:#6DB0E3"/>
		<stop  offset="0.9842" style="stop-color:#496796"/>
		<stop  offset="1" style="stop-color:#496796"/>
	</radialGradient>
	<polygon fill="url(#SVGID_85_)" points="77.084,32.612 77.034,32.413 76.95,32.463 77.001,32.645 	"/>
	<radialGradient id="SVGID_86_" cx="82.46" cy="38.0181" r="0.1344" gradientUnits="userSpaceOnUse">
		<stop  offset="0" style="stop-color:#BDDFF3"/>
		<stop  offset="0.4263" style="stop-color:#6DB0E3"/>
		<stop  offset="0.9842" style="stop-color:#496796"/>
		<stop  offset="1" style="stop-color:#496796"/>
	</radialGradient>
	<path fill="url(#SVGID_86_)" d="M82.337,37.889H82.32c0.033,0.125,0.114,0.208,0.279,0.258
		C82.553,37.956,82.452,37.889,82.337,37.889z"/>
	<radialGradient id="SVGID_87_" cx="80.5898" cy="36.9341" r="3.0655" gradientUnits="userSpaceOnUse">
		<stop  offset="0" style="stop-color:#BDDFF3"/>
		<stop  offset="0.4263" style="stop-color:#6DB0E3"/>
		<stop  offset="0.9842" style="stop-color:#496796"/>
		<stop  offset="1" style="stop-color:#496796"/>
	</radialGradient>
	<path fill="url(#SVGID_87_)" d="M81.505,38.189c-0.082,0.017-0.132,0.017-0.183,0.008c0.067,0.034,0.135,0.042,0.199,0.034
		c0.416,0.797,0.782,1.661,1.112,2.526c-0.498-1.696-1.112-3.359-1.878-4.954c-0.696-0.897-1.644-2.028-2.21-2.693
		c1.213,1.945,2.21,3.374,2.626,4.496C81.289,37.798,81.39,37.998,81.505,38.189z"/>
	<radialGradient id="SVGID_88_" cx="17.4121" cy="26.541" r="0.0238" gradientUnits="userSpaceOnUse">
		<stop  offset="0" style="stop-color:#BDDFF3"/>
		<stop  offset="0.4263" style="stop-color:#6DB0E3"/>
		<stop  offset="0.9842" style="stop-color:#496796"/>
		<stop  offset="1" style="stop-color:#496796"/>
	</radialGradient>
	<path fill="url(#SVGID_88_)" d="M17.429,26.512c-0.017,0.017-0.017,0.042-0.034,0.058l0.017-0.025L17.429,26.512z"/>
	<radialGradient id="SVGID_89_" cx="77.7969" cy="76.3418" r="0.1484" gradientUnits="userSpaceOnUse">
		<stop  offset="0" style="stop-color:#BDDFF3"/>
		<stop  offset="0.4263" style="stop-color:#6DB0E3"/>
		<stop  offset="0.9842" style="stop-color:#496796"/>
		<stop  offset="1" style="stop-color:#496796"/>
	</radialGradient>
	<path fill="url(#SVGID_89_)" d="M77.615,76.237c0.051,0.074,0.084,0.141,0.115,0.208c0.217-0.051,0.315-0.101,0.2-0.134
		C77.848,76.277,77.747,76.254,77.615,76.237z"/>
	<radialGradient id="SVGID_90_" cx="75.8789" cy="77.3477" r="0.1564" gradientUnits="userSpaceOnUse">
		<stop  offset="0" style="stop-color:#BDDFF3"/>
		<stop  offset="0.4263" style="stop-color:#6DB0E3"/>
		<stop  offset="0.9842" style="stop-color:#496796"/>
		<stop  offset="1" style="stop-color:#496796"/>
	</radialGradient>
	<path fill="url(#SVGID_90_)" d="M75.937,77.423l0.15-0.149c-0.15,0-0.234,0.067-0.416,0.084L75.937,77.423z"/>
	<radialGradient id="SVGID_91_" cx="19.0654" cy="27.6094" r="0.1866" gradientUnits="userSpaceOnUse">
		<stop  offset="0" style="stop-color:#BDDFF3"/>
		<stop  offset="0.4263" style="stop-color:#6DB0E3"/>
		<stop  offset="0.9842" style="stop-color:#496796"/>
		<stop  offset="1" style="stop-color:#496796"/>
	</radialGradient>
	<path fill="url(#SVGID_91_)" d="M19.157,27.443l0.033-0.05v-0.017c-0.188,0.35-0.242,0.444-0.223,0.424
		c-0.008,0.013-0.021,0.027-0.027,0.041l0.05-0.066L19.157,27.443z"/>
	<radialGradient id="SVGID_92_" cx="17.7695" cy="25.9141" r="0.4868" gradientUnits="userSpaceOnUse">
		<stop  offset="0" style="stop-color:#BDDFF3"/>
		<stop  offset="0.4263" style="stop-color:#6DB0E3"/>
		<stop  offset="0.9842" style="stop-color:#496796"/>
		<stop  offset="1" style="stop-color:#496796"/>
	</radialGradient>
	<path fill="url(#SVGID_92_)" d="M18.11,25.316c-0.017,0-0.283,0.481-0.682,1.196l0.017-0.008
		C17.911,25.647,18.11,25.316,18.11,25.316z"/>
	<radialGradient id="SVGID_93_" cx="18.9077" cy="27.8999" r="0.0473" gradientUnits="userSpaceOnUse">
		<stop  offset="0" style="stop-color:#BDDFF3"/>
		<stop  offset="0.4263" style="stop-color:#6DB0E3"/>
		<stop  offset="0.9842" style="stop-color:#496796"/>
		<stop  offset="1" style="stop-color:#496796"/>
	</radialGradient>
	<path fill="url(#SVGID_93_)" d="M18.924,27.858c-0.017,0.033-0.033,0.066-0.05,0.1c0.017-0.033,0.05-0.091,0.066-0.116
		L18.924,27.858z"/>
	<radialGradient id="SVGID_94_" cx="19.1987" cy="27.3765" r="0.0059" gradientUnits="userSpaceOnUse">
		<stop  offset="0" style="stop-color:#BDDFF3"/>
		<stop  offset="0.4263" style="stop-color:#6DB0E3"/>
		<stop  offset="0.9842" style="stop-color:#496796"/>
		<stop  offset="1" style="stop-color:#496796"/>
	</radialGradient>
	<path fill="url(#SVGID_94_)" d="M19.207,27.376c-0.017,0-0.017,0-0.017,0"/>
	<radialGradient id="SVGID_95_" cx="76.2109" cy="34.4492" r="0.1926" gradientUnits="userSpaceOnUse">
		<stop  offset="0" style="stop-color:#BDDFF3"/>
		<stop  offset="0.4263" style="stop-color:#6DB0E3"/>
		<stop  offset="0.9842" style="stop-color:#496796"/>
		<stop  offset="1" style="stop-color:#496796"/>
	</radialGradient>
	<path fill="url(#SVGID_95_)" d="M76.269,34.574l0.185-0.083l-0.483-0.167l0.249,0.25C76.235,34.574,76.252,34.574,76.269,34.574z"
		/>
	<radialGradient id="SVGID_96_" cx="34.1211" cy="66.6064" r="0.77" gradientUnits="userSpaceOnUse">
		<stop  offset="0" style="stop-color:#BDDFF3"/>
		<stop  offset="0.4263" style="stop-color:#6DB0E3"/>
		<stop  offset="0.9842" style="stop-color:#496796"/>
		<stop  offset="1" style="stop-color:#496796"/>
	</radialGradient>
	<path fill="url(#SVGID_96_)" d="M34.482,65.889c-0.366,0.083-0.748,0.166-1.181,0.267c0.034,0.065,0.067,0.149,0.1,0.233
		c0,0,0,0.017,0,0.032h0.017c0.649-0.224,1.296,0.183,1.296,0.225c-0.016,0.092-0.016,0.175-0.033,0.275l0.033-0.018
		c-0.016,0.018-0.016,0.018-0.033,0.025l0.017,0.017c0,0.009,0.016,0.017,0.033,0.025c-0.017,0-0.017-0.009-0.033-0.009
		c0,0.125,0,0.238,0.016,0.362c0.05-0.015,0.101-0.032,0.133-0.049c0.165-0.188,0.1-0.555-0.133-1.029
		C34.632,66.139,34.565,66.022,34.482,65.889z"/>
	<radialGradient id="SVGID_97_" cx="30.6016" cy="63.3203" r="0.3012" gradientUnits="userSpaceOnUse">
		<stop  offset="0" style="stop-color:#BDDFF3"/>
		<stop  offset="0.4263" style="stop-color:#6DB0E3"/>
		<stop  offset="0.9842" style="stop-color:#496796"/>
		<stop  offset="1" style="stop-color:#496796"/>
	</radialGradient>
	<path fill="url(#SVGID_97_)" d="M30.293,63.195c-0.034,0-0.065,0-0.099,0c0.05,0.083,0.099,0.175,0.148,0.25
		c0.133-0.025,0.25-0.059,0.383-0.075c-0.033,0-0.083,0-0.099,0c0.183-0.058,0.283-0.092,0.383-0.108
		C30.792,63.212,30.559,63.195,30.293,63.195z"/>
	<radialGradient id="SVGID_98_" cx="25.3242" cy="67.209" r="0.3194" gradientUnits="userSpaceOnUse">
		<stop  offset="0" style="stop-color:#BDDFF3"/>
		<stop  offset="0.4263" style="stop-color:#6DB0E3"/>
		<stop  offset="0.9842" style="stop-color:#496796"/>
		<stop  offset="1" style="stop-color:#496796"/>
	</radialGradient>
	<path fill="url(#SVGID_98_)" d="M25.157,66.788c0.1,0.282,0.184,0.554,0.25,0.837c0.033,0,0.05,0.008,0.083,0
		C25.44,67.31,25.308,67.036,25.157,66.788z"/>
	<radialGradient id="SVGID_99_" cx="30.1104" cy="62.8418" r="0.1485" gradientUnits="userSpaceOnUse">
		<stop  offset="0" style="stop-color:#BDDFF3"/>
		<stop  offset="0.4263" style="stop-color:#6DB0E3"/>
		<stop  offset="0.9842" style="stop-color:#496796"/>
		<stop  offset="1" style="stop-color:#496796"/>
	</radialGradient>
	<path fill="url(#SVGID_99_)" d="M29.928,62.738c0.033,0.074,0.083,0.141,0.116,0.208c0.215-0.05,0.315-0.101,0.2-0.134
		C30.177,62.779,30.062,62.755,29.928,62.738z"/>
	<radialGradient id="SVGID_100_" cx="15.7998" cy="65.6641" r="0.0173" gradientUnits="userSpaceOnUse">
		<stop  offset="0" style="stop-color:#BDDFF3"/>
		<stop  offset="0.4263" style="stop-color:#6DB0E3"/>
		<stop  offset="0.9842" style="stop-color:#496796"/>
		<stop  offset="1" style="stop-color:#496796"/>
	</radialGradient>
	<polyline fill="url(#SVGID_100_)" points="15.8,65.688 15.8,65.672 15.8,65.639 	"/>
	<radialGradient id="SVGID_101_" cx="78.4453" cy="38.4966" r="0.0262" gradientUnits="userSpaceOnUse">
		<stop  offset="0" style="stop-color:#BDDFF3"/>
		<stop  offset="0.4263" style="stop-color:#6DB0E3"/>
		<stop  offset="0.9842" style="stop-color:#496796"/>
		<stop  offset="1" style="stop-color:#496796"/>
	</radialGradient>
	<line fill="url(#SVGID_101_)" x1="78.429" y1="38.463" x2="78.462" y2="38.53"/>
	<radialGradient id="SVGID_102_" cx="80.1406" cy="41.1348" r="0.0028" gradientUnits="userSpaceOnUse">
		<stop  offset="0" style="stop-color:#BDDFF3"/>
		<stop  offset="0.4263" style="stop-color:#6DB0E3"/>
		<stop  offset="0.9842" style="stop-color:#496796"/>
		<stop  offset="1" style="stop-color:#496796"/>
	</radialGradient>
	<path fill="url(#SVGID_102_)" d="M80.141,41.13c0,0.008,0,0.008,0,0.008"/>
	<radialGradient id="SVGID_103_" cx="51.04" cy="48.2798" r="39.2034" gradientUnits="userSpaceOnUse">
		<stop  offset="0" style="stop-color:#BDDFF3"/>
		<stop  offset="0.4263" style="stop-color:#6DB0E3"/>
		<stop  offset="0.9842" style="stop-color:#496796"/>
		<stop  offset="1" style="stop-color:#496796"/>
	</radialGradient>
	<path fill="url(#SVGID_103_)" d="M90.646,47.447c0.084-1.936,0-3.765-0.182-5.76c-0.45-3.989-1.115-7.563-3.109-11.021
		c-1.297-2.21-2.825-4.196-4.672-6.333c-0.514-0.582-1.294-1.097-1.512-1.097c-0.084,0-0.084,0.058,0,0.182
		c0.299,0.417,0.598,0.814,0.914,1.214c1.812,2.044,3.174,4.587,4.487,6.94c0.399,0.905,0.882,1.853,1.38,2.792
		c0.117,0.441,0.5,1.321,0.366,1.745c-0.998-2.875-2.409-5.61-4.272-8.037c0-0.017,0-0.059-0.017-0.083v0.066
		c-0.081-0.116-0.165-0.216-0.231-0.333c0.033,0.191,0.033,0.382,0.215,0.557l-0.232,0.008c0,0,0.135,0.233,0.282,0.482v0.05
		c-0.332-0.283-0.913-1.188-0.997-1.188c-0.017,0,0,0.042,0.033,0.125c0.316,0.648,0.665,1.229,1.031,1.828
		c0,0.191,0.017,0.383,0.033,0.615c0.333,0.798,0.615,1.612,0.881,2.46c-0.101-0.74-0.216-1.462-0.381-2.178
		c0.18,0.316,0.381,0.64,0.548,0.947l0.249,0.682l-0.051-0.349c0.135,0.232,0.282,0.44,0.399,0.665
		c0.914,2.377,1.495,4.853,1.777,7.312c0.5,2.129,0.749,4.34,0.766,6.6c0.284-2.727,0.185-5.518-0.35-8.278l0.117,0.1l0.165-0.1
		c0.084,0.283,0.151,0.558,0.201,0.831c0.347,1.504,0.548,3.01,0.581,4.489c-0.083,2.061-0.382,4.013-0.829,5.916
		c-0.101,1.115-0.269,2.244-0.5,3.359c0.017-0.051,0.05-0.101,0.05-0.151c-0.017,0.134-0.05,0.259-0.101,0.383
		c-0.033,0.182-0.066,0.366-0.117,0.541c-0.282,1.204-0.614,2.385-1.028,3.515c-0.216,1.33-0.433,2.726-0.716,4.121
		c-0.231,0.8-0.499,1.587-0.799,2.353c-0.281,0.158-0.564,0.317-0.614,0.715c-0.215,0.399-0.198,0.921-0.148,1.404
		c-0.185,0.149-0.349,0.315-0.483,0.483c0,0.133-1.646,1.081-1.611,1.211c0.017,0.25,0.083,0.508,0.184,0.74h-0.017l-0.05,0.009
		h0.083c0.048,0.133,0.017,0.283-0.066,0.441c-1.132,0.474-2.562,1.138-3.392,1.098c0.083-0.324,0.1-0.689,0.05-1.098
		c0.017-0.009,0-0.025,0-0.033c0.78-0.541,2.062-1.132,2.842-1.57c-0.182,0.232-0.381,0.521-0.515,0.796
		c0.249-0.3,0.447-0.604,0.682-0.912c0.017,0,0.033-0.025,0.048-0.033c0-0.009,0-0.009-0.015-0.018
		c0.562-0.748,1.079-1.505,1.562-2.293c0.05-0.226,0.101-0.433,0.15-0.648c-0.466,0.881-0.982,1.743-1.53,2.576
		c-0.067,0.083-0.168,0.216-0.249,0.341c-0.866-0.392-2.045,0.763-3.043,1.021c-0.098-0.479-0.332-0.896-0.664-1.229
		c0.664-0.549,1.829-1.115,2.045-1.794c-0.682,0.115-1.629,0.963-2.593,1.32c-0.266-0.208-0.584-0.375-0.914-0.509
		c-0.117-0.366-0.249-0.696-0.433-1.062c0.763-0.766,2.045-1.581,1.646-2.177c-1.213,0.646-1.746,1.52-2.512,2.269
		c-0.33-0.541-0.531-1.257-0.931-1.623c-0.066,0.366,0,0.982-0.414,1.115c-0.349,0.125-0.281-0.615-0.332-0.915
		c-0.483,0.25,0.165,0.79-0.517,0.998c-0.431,0.084-0.231-0.532-0.581-0.674c-0.134,0.241,0.299,0.708-0.249,0.99
		c-0.416,0.216-0.548-0.018-0.665-0.232c-0.101-0.185-0.198-0.367-0.433-0.309c0,0.042,0.017,0.075,0.033,0.092
		c-0.134,0.066-0.134,0.208-0.416,0.149c-0.464-0.582-1.978-0.799-2.012-1.289c0.051,0.524-1.66-0.639-2.177-0.737
		c-0.066-0.284-0.114-0.534-0.131-0.726c-0.034-0.174-0.051-0.325-0.067-0.456c0-0.017-0.017-0.017-0.033-0.032
		c-0.051,0.016-0.084,0.032-0.134,0.049c-0.117,0.266-0.333,0.514-0.696,0.49c-0.399,0.041-0.65-0.159-0.766-0.399
		c-0.017-0.032-0.017-0.058-0.033-0.083c-0.266-0.057-0.5-0.191-0.648-0.456c-0.299-0.383-0.333-0.766-0.218-1.082
		c-0.215-0.449-0.366-0.905-0.383-1.13c0-0.075-0.017-0.141-0.017-0.216c-0.213-0.274-0.397-0.565-0.564-0.889
		c-0.182-0.341-0.333-0.69-0.414-1.022c-0.117-0.316-0.182-0.732-0.182-0.83c-0.05-0.333-0.05-0.665-0.033-0.982
		c0.066-0.613,0.132-0.781,0.215-0.964l0.148,0.017l-0.148-0.033c0-0.032,0.015-0.065,0.031-0.107
		c0.101,0.042,0.201,0.016,0.302-0.017c0.05,0.017,0.081,0.032,0.131,0.059c-0.017-0.034-0.017-0.093,0-0.101
		c0.101,0.008,0.201,0.074,0.285,0.074c-0.033-0.032-0.084-0.083-0.067-0.125c0.017-0.05,0.084,0.025,0.101,0.042
		c0.015-0.049-0.084-0.042-0.033-0.108c0.017-0.032,0.017-0.016,0.048,0c0.017,0,0.033,0.017,0.05,0
		c0-0.032-0.081-0.032-0.064-0.099c0.015-0.05,0.048-0.033,0.064-0.033c0.034,0.017,0.051,0.017,0.067,0
		c-0.033-0.049-0.084-0.017-0.132-0.058c0.082-0.083-0.101-0.241,0.031-0.274c-0.081,0.033-0.098-0.051-0.115-0.125
		c-0.017-0.075-0.033-0.157-0.1-0.124l0.066-0.033c-0.05,0-0.084-0.018-0.134-0.034c0.033-0.033,0.067-0.083,0.084-0.117
		c0.101-0.099,0.182-0.215,0.282-0.299c0.098,0.101,0.248,0.133,0.349,0.166c0,0.025-0.017,0.034-0.017,0.042
		c-0.15,0.091-0.218,0.275-0.332,0.416l0.017-0.033l-0.033-0.009l0.017,0.05c0,0-0.017,0.009-0.017,0.017
		c0.114,0.101-0.067,0.201,0.066,0.283c-0.198,0.133,0.232,0.198,0.031,0.298c0.101,0.026,0.185,0.101,0.234,0.185
		c0-0.218,0.017-0.44,0.033-0.665c0.183-1.68,0.383-1.879,0.531-2.427c0.168-0.433,0.5-1.097,0.581-1.247
		c0.252-0.407,0.551-0.847,0.766-1.139c0.332-0.424,0.749-0.89,1.048-1.089l0.282-0.208l0.134-0.091l0.033-0.017
		c-0.033,0.017-0.15,0.125-0.2,0.183h0.017l0.05-0.017c0.134-0.059,0.282-0.092,0.45-0.132c0.796-0.134,1.595,0.057,2.375,0.166
		c0.033-0.099,0.101-0.183,0.234-0.233c0.531,0.44,0.863,0.333,1.213,0.216c0.198-0.058,0.416-0.116,0.682-0.082
		c0.017,0,0.033,0,0.048,0c0.268,0.017,0.184-0.3,0.083-0.617c-0.147-0.331-0.296-0.681-0.017-0.597
		c0.634,0.232,0.218,0.839,0.732,1.154c0.365,0.208,0.782,0.176,1.131,0.125l-0.05-0.065c0.117-0.026,0.231-0.117,0.332-0.284
		l-0.033-0.598c0.648,0.473,1.495,1.013,2.395,1.395c0.083-0.25,0.231-0.497,0.497-0.547c-0.033-0.05-0.084-0.117-0.117-0.151
		c0.017-0.497,0.101-0.83,0.201-1.146c0.084,0.083,0.198,0.149,0.383,0.158c0.131,0.025,0.248,0,0.347-0.075
		c0.017,0.017,0.033,0.017,0.05,0.017c0.051,0.017,0.117,0.017,0.168,0c0.117,0.15,0.215,0.283,0.332,0.433
		c-0.017-0.167-0.05-0.3-0.05-0.358c-0.017-0.091-0.017-0.174-0.033-0.266c0.083-0.1,0.066-0.208,0-0.325
		c0.033-0.033,0.05-0.075,0.066-0.116c-0.033,0.025-0.084,0.025-0.084,0c0-0.083,0.051-0.167,0.051-0.241
		c-0.033,0.024-0.033,0.042-0.067,0.058v-0.098c-0.017-0.333-0.017-0.666,0-0.998c-0.114,0.066-0.248,0.117-0.383,0.182
		c0.018-0.034,0.018-0.065,0.034-0.099c0.017-0.083,0.05-0.175,0.083-0.241c0.051-0.075,0.101-0.158,0.117-0.175
		c0.051-0.067,0.099-0.133,0.148-0.175c0.151-0.125,0.185-0.125,0.234-0.158c0.051-0.017,0.115-0.05,0.132-0.05
		c0.05-0.024,0.101-0.033,0.15-0.041c0.034-0.008,0.067-0.008,0.101-0.008l0.165,0.308l-0.066-0.242l-0.048-0.066h0.017h0.017
		l0.015,0.008c0,0,0.017,0.008,0.033,0.017c0.067,0.058,0.132,0.125,0.182,0.191c0-0.017,0.033-0.017,0.033,0
		c0.017,0.1,0.084,0.075,0.134,0.133v0.008c0.018,0.025,0.034-0.017,0.051-0.049c0.017-0.025,0.033-0.075,0.05-0.042
		c0.034,0.059-0.033,0.083-0.017,0.133c0,0.05,0.033,0.066,0.082,0.1v-0.017c0,0.017,0.017,0.017,0.033,0l0.05-0.05
		c0.017,0.083,0.034,0.191,0.067,0.275c0.033-0.009,0.066-0.017,0.084,0v-0.017c0.05-0.042,0.083-0.066,0.117-0.083
		c0.03-0.008,0.047-0.025,0.047-0.042h0.018c0-0.017,0-0.033,0.017-0.049v-0.034c-0.067-0.033-0.017-0.266-0.182-0.25
		c0.147-0.017-0.051-0.15,0.033-0.233c-0.05-0.034-0.101-0.008-0.134-0.042c0-0.017,0.017-0.008,0.05,0
		c0.034,0.008,0.067,0.017,0.084-0.033c0.033-0.059-0.05-0.059-0.067-0.092c0.018,0,0.034,0.017,0.051,0.017s0.05,0.016,0.066,0
		c0.048-0.067-0.083-0.067-0.05-0.117c0.033,0.016,0.114,0.083,0.114,0.049c0.024-0.025-0.033-0.075-0.057-0.108
		c-0.058-0.017-0.117-0.024-0.158,0c-0.184,0.025-0.35,0-0.517,0v-0.008c0-0.058,0.084-0.025,0.101-0.058
		c-0.017,0-0.033,0-0.067,0.008c0,0-0.033,0.008-0.05,0c0.066-0.059-0.098-0.1,0-0.15c-0.081,0.033-0.098,0-0.115-0.033
		c-0.033-0.032-0.05-0.082-0.098-0.049l0.048-0.033c-0.081,0.033-0.165,0-0.282,0.066c-0.084,0.033-0.134,0.099-0.182,0.165
		c0-0.041,0-0.083,0.017-0.132c0-0.066,0.017-0.124,0.017-0.19v-0.008c0.015-0.059,0.015-0.117,0.031-0.183
		c0.117-0.067,0.201-0.233,0.318-0.299c0.033-0.017,0.048-0.05,0.064-0.066c-0.048,0.099-0.099,0.216-0.148,0.349
		c0.182-0.233,0.431-0.366,0.564-0.522c0.05,0.023,0.124,0.065,0.182,0.115v0.042l0.033-0.033l0.018,0.017
		c0.033-0.059,0.083-0.033,0.134-0.033c0.066,0.017,0.101,0.033,0.147-0.042c0-0.009,0-0.021,0-0.033
		c0.018,0.058,0.084,0.025,0.135,0c0.048-0.032,0.081-0.074,0.131-0.017c0.018-0.023,0-0.065,0.034-0.09c0,0,0,0,0,0.017
		c0.066-0.083,0.184-0.167,0.266-0.233c0.066,0.117,0.134,0.233,0.167,0.365c0.051-0.149-0.05-0.282,0.017-0.439
		c0.067,0,0,0.091,0.067,0.125c0-0.05-0.017-0.133,0.033-0.183c0.215-0.033,0.081,0.266,0.182,0.366
		c0.033-0.167,0.084-0.383,0.117-0.583l0.017-0.075v-0.042l0.017-0.008v0.05l0.018-0.191c0.017-0.034,0.017-0.066,0.017-0.083
		c0,0.066,0.033,0.132,0.066,0.2l0.034,0.116c0.014,0,0.031,0.066,0.048,0.017l0.017,0.05c0.066,0.133,0.131,0.258,0.182,0.399
		c0.017-0.091-0.033-0.166,0-0.25c0.033,0,0,0.05,0.033,0.067c0-0.034,0-0.083,0.017-0.1c0.134-0.033,0.067,0.141,0.134,0.208
		c0-0.1,0.034-0.225,0.051-0.325v-0.059l0.017-0.016v0.016l0.017-0.099c0-0.075,0-0.142,0-0.216
		c-0.017-0.258-0.234-0.623-0.449-0.623c-0.082,0-0.099,0.116-0.132,0.19c-0.033-0.074-0.067-0.173-0.134-0.223
		c-0.117-0.366-0.416-0.716-0.698-0.716c-0.051,0-0.101,0.034-0.117,0.1c-0.017,0.033-0.034,0.05-0.051,0.083
		c0-0.008,0-0.033-0.017-0.05v-0.017c-0.017,0.017-0.017,0.017-0.033,0c0.017-0.017,0.017-0.033,0.033-0.033l-0.017-0.033v-0.017
		c0-0.034-0.017-0.034-0.033-0.05c-0.048-0.065-0.099-0.106-0.165-0.198c-0.018-0.05-0.051-0.117-0.099-0.233
		c0.017,0.034,0.017,0.066,0.017,0.1c0,0.05,0,0.083-0.05,0.083c-0.101-0.117-0.234-0.349-0.634-0.591
		c-0.28-0.141-0.531-0.25-0.914-0.3c-0.349-0.033-0.614,0.009-0.779,0.076c0.098,0,0.198,0,0.315,0
		c-0.117,0.017-0.268,0.033-0.466,0.083c-0.199,0.05-0.3,0.1-0.481,0.166l-0.101,0.058l-0.033,0.017l-0.017,0.009
		c-0.017,0.017-0.05,0.033-0.099,0.067l-0.05,0.016l-0.084,0.067c-0.066,0.05-0.117,0.091-0.165,0.133
		c0.031,0,0.099-0.024,0.148-0.075c0.033-0.025,0.084-0.042,0.101-0.075l0.064-0.034c0.067-0.033,0.084-0.05,0.101-0.05
		s0.017,0,0.017-0.017h0.017l0.034-0.033l0.066-0.033c0.315-0.167,0.914-0.216,0.68-0.133c-0.048,0.042-0.232,0.083-0.313,0.141
		c-0.067,0.025-0.117,0.075-0.185,0.092l-0.101,0.066l-0.05,0.017l-0.015,0.016c-0.033,0.034-0.083,0.05-0.083,0.059h-0.017v0.008
		c-0.084,0.1-0.232,0.233-0.3,0.266c0.051-0.033,0.148-0.1,0.232-0.158l0.067-0.05l0.033-0.017l0.017-0.008v-0.008
		c0.017-0.009,0.033-0.017,0.081-0.05h0.017l0.017-0.008c0.101-0.05,0.201-0.083,0.302-0.117c0,0.05-0.084,0.125-0.218,0.225
		l-0.017,0.008c-0.05,0.034-0.067,0.034-0.084,0.05v0.017l-0.017,0.034c-0.017,0.017-0.031,0.034-0.064,0.066
		c-0.007,0.014-0.026,0.032-0.043,0.049c0.015-0.013,0.026-0.016,0.043-0.032l0.064-0.049l0.033-0.034l0.018-0.017h0.017
		c0.033-0.034,0.066-0.034,0.066-0.05h0.017c0.117-0.067,0.249-0.108,0.35-0.133c0.132-0.017,0.266-0.017,0.315-0.008
		c0.067,0.033-0.248,0.066-0.399,0.142c-0.033,0.016-0.081,0.033-0.098,0.05l-0.067,0.033l-0.017,0.017h-0.017
		c-0.033,0.033-0.033,0.033-0.05,0.033v0.017c-0.034,0.017-0.051,0.034-0.034,0.05c0.017,0,0.034-0.017,0.051-0.017v-0.034
		c0.017,0,0.101-0.049,0.066-0.017l0.017-0.016l0.018-0.017c0.05-0.017,0.114-0.05,0.198-0.084c0.101-0.05,0.332-0.091,0.497-0.066
		c-0.017,0.008-0.05,0.017-0.081,0.034l0.015-0.008c-0.165,0.041-0.347,0.108-0.082,0.108c0.051,0,0.099,0,0.148,0
		c-0.033,0.017-0.033,0.034,0.018,0.066c0.05-0.049,0.15,0,0.2,0c-0.017,0.017-0.05,0.034-0.101,0.034
		c0.034,0.017,0.067,0.017,0.084,0.033c0.017-0.033,0.051-0.066,0.033-0.083h0.018c0.033,0.017,0.05,0.017,0.081,0.017
		c0.084,0.05,0.15,0.092,0.218,0.133c0.084,0.05,0.134,0.115,0.165,0.165c-0.048,0.017-0.132,0.033-0.232,0.05
		c-0.033,0.017-0.066,0.033-0.101,0.033c-0.017-0.033-0.033-0.066-0.05-0.1c0,0,0-0.017-0.015-0.034
		c-0.017,0-0.017-0.017-0.017-0.04c-0.017,0-0.017-0.008-0.017-0.008c0-0.008,0-0.017-0.017-0.025c0,0,0-0.008,0-0.016h-0.017
		c0.017-0.017,0.017-0.025-0.018-0.025v0.008c-0.017-0.008-0.017-0.017-0.017-0.025c-0.017-0.008-0.017-0.017-0.033-0.025
		l-0.017-0.009l-0.051-0.033c0,0,0,0-0.017,0s-0.017,0-0.033,0H78.13c-0.017,0-0.017,0-0.017,0h-0.018c-0.017,0-0.017,0-0.017,0
		s0,0-0.017,0c0,0.016-0.017,0.016-0.017,0.024c0,0-0.017,0-0.017,0.008c0,0-0.015,0-0.015,0.009h-0.017c0,0,0,0.008-0.017,0.008
		v0.008c-0.017,0.008-0.017,0.017-0.034,0.017c0,0-0.017,0.008-0.017,0.017l-0.017,0.009c0,0.008-0.017,0.008-0.017,0.008
		c-0.067,0-0.067,0.033-0.084,0.089h0.017c-0.017,0-0.033,0.017-0.033,0.034c-0.033,0.034-0.05,0.066-0.066,0.1
		c-0.015,0-0.015,0.017-0.031,0.033c-0.017,0.033-0.033,0.067-0.067,0.117c-0.033,0.05-0.05,0.1-0.083,0.15
		c-0.018,0.017-0.034,0.033-0.067,0.05c0.017,0.017,0.033,0.033,0.033,0.033c-0.048,0.1-0.081,0.217-0.132,0.333c0,0,0,0,0,0.016
		c-0.017,0.024-0.017,0.041-0.033,0.074c0,0,0,0.017,0,0.025c-0.017,0.017-0.017,0.042-0.033,0.058v0.042
		C77.3,39.792,77.3,39.809,77.3,39.842v0.017c-0.01,0.017-0.024,0.05-0.034,0.075c0.018-0.049,0.018-0.075,0.034-0.124l-0.084-0.017
		c-0.101,0.283-0.165,0.508-0.215,0.699c-0.017,0-0.017-0.017-0.017-0.017l-0.051,0.066c-0.05-0.034-0.017-0.1-0.066-0.15
		c-0.034,0.008,0,0.066-0.034,0.083l-0.064-0.042c0.033,0.108-0.067,0.191-0.15,0.291c-0.084-0.008-0.115-0.041-0.115-0.083
		c-0.033,0.059,0.017,0.108,0.017,0.158c-0.117-0.008-0.234-0.016-0.318-0.024c0.084-0.025,0.201-0.042,0.252-0.083
		c-0.051-0.025-0.151-0.034-0.168-0.1c0-0.05,0.117-0.033,0.168-0.033c-0.034-0.083-0.135,0-0.151-0.1
		c-0.017-0.066,0.101-0.025,0.117-0.066c-0.017-0.025-0.066,0-0.101-0.025c0.018,0,0.051-0.017,0.051-0.042
		c0.017-0.016,0.017-0.041,0.033-0.058c-0.026,0.025-0.033,0.058-0.066,0.075c-0.117,0.025,0.017-0.05-0.067-0.083
		c0.026-0.033,0.124-0.025,0.101-0.1c-0.051,0-0.084,0.049-0.134,0.066c-0.034-0.141,0.101-0.3,0.218-0.433
		c0-0.017,0.017-0.033,0.033-0.059c-0.134,0.159-0.251,0.308-0.285,0.441c-0.033-0.117-0.299-0.167-0.215-0.283
		c-0.066,0.091-0.15,0.017-0.232-0.067c-0.083-0.066-0.15-0.158-0.2-0.05l0.033-0.091c-0.05,0.017-0.101,0.042-0.15,0.058
		c-0.081-0.141-0.182-0.281-0.264-0.414c-0.101,0.042-0.167-0.008-0.251-0.025c-0.148-0.025-0.299-0.075-0.449,0.008
		c-0.082,0.117-0.182,0.2-0.264,0.282v0.017c0.051,0.216,0.017,0.357,0.017,0.424c0.018,0.025,0.034,0.008,0.048-0.008
		c0.018-0.024,0.034-0.066,0.051-0.1c-0.033,0.092-0.064,0.142-0.064,0.184c-0.017,0.05-0.017,0.083-0.034,0.116v0.033h0.018v-0.017
		h0.017c-0.017,0.017-0.017,0.017-0.017,0.034c0,0,0,0-0.018,0c0,0.025,0,0.033,0,0.033h-0.017c-0.033,0.05-0.066,0.083-0.101,0.116
		c-0.066,0.067-0.117,0.133-0.184,0.183c-0.017,0.059,0,0.116,0.066,0.142h-0.017c0.017,0,0.017,0.008,0.017,0.008
		c0.084,0.041-0.066,0.166-0.083,0.232c0.083,0.025,0.083-0.116,0.167-0.116c0.017-0.034,0.033-0.05,0.067-0.067
		c0,0.033,0.033,0.017,0.017,0.05c0.017,0,0.017-0.017,0.033-0.017c0.033-0.042,0.081-0.066,0.099-0.05
		c0.017,0.034,0,0.117-0.031,0.15c0.048,0,0.098-0.034,0.131-0.017c0.018,0.034,0.034,0.066,0.034,0.108
		c0-0.017,0-0.025,0.033-0.042c0.031,0.059,0.098,0.05,0.165,0.025c0.067-0.025,0.15-0.058,0.198-0.075c-0.014,0-0.014,0-0.014,0
		h-0.017c-0.018,0-0.034-0.017-0.034-0.017H74.74h-0.017h-0.017h-0.033c-0.051-0.017-0.118-0.017-0.135-0.033
		c0.017,0.016,0.135,0.016,0.201,0.016c0.017,0,0.051,0,0.067,0.017h0.03h0.018c0-0.017,0.017-0.049,0.033-0.066V40.84
		c0,0-0.017,0-0.033,0l-0.034-0.017h-0.014h-0.017c-0.018,0-0.018-0.017-0.051-0.025h-0.05c-0.017-0.008-0.034-0.008-0.067-0.016
		c-0.033-0.008-0.067-0.008-0.084-0.025c0.051,0,0.084,0.008,0.117,0.008l0.051,0.008l0.033,0.008c0.033,0,0.051,0.008,0.051,0.008
		h0.017v0.008h0.014l0.067,0.025c0,0,0.017,0,0.017,0.017c0.05-0.075,0.067-0.042,0.084,0.017c0.033,0.017,0.066,0.034,0.134,0.066
		c0.081,0.05,0.148,0.108,0.182,0.133c-0.017-0.042-0.066-0.067-0.101-0.116c0.084,0.049,0.182,0.125,0.299,0.248
		c0.134,0.149,0.185,0.283,0.218,0.433c0.048,0.216,0.033,0.365,0.017,0.431c0.017,0.025,0.031,0,0.048-0.017
		c0.018-0.017,0.051-0.066,0.067-0.099c-0.05,0.099-0.084,0.141-0.084,0.19c-0.015,0.042-0.015,0.083-0.015,0.108v0.034v0.016
		c0.015,0,0,0.017,0.015,0.017c-0.015,0-0.015,0-0.015,0v0.017c-0.017,0-0.017,0-0.033,0c-0.033,0.05-0.066,0.083-0.101,0.134
		c-0.066,0.066-0.117,0.116-0.167,0.166c-0.017,0.066-0.017,0.117,0.05,0.133c-0.033,0.042-0.066,0.092-0.117,0.141
		c-0.246-0.141-0.53-0.191-0.779-0.066c0-0.033,0-0.058,0-0.091v-0.017c-0.051,0.033-0.101,0.05-0.165,0.05
		c0.048-0.624-1.662-0.599-1.562-1.463c-0.5,0-0.748,0.524-1.279,0.583c-0.05-0.525,1.129-0.408,0.813-1.139
		c-0.134-0.341-0.431-0.292-0.698-0.225c-0.148,0.017-0.282,0.05-0.383,0c0.218-0.349,0.913-0.191,0.863-0.615
		c-0.048-0.365-0.28-0.348-0.531-0.308c-0.215,0.025-0.416,0.05-0.514-0.173c0.365-0.091,1.212-0.033,1.162-0.382
		c-0.067-0.407-0.763-0.333-1.162-0.382c-0.477,0.265-0.897,0.548-1.064,1.013c-0.067,0.066-0.135,0.133-0.201,0.183
		c0.066,0.399,0.066,0.716-0.081,1.239c-0.067,0.174-0.249,0.225-0.383,0.283c-0.115,0.025-0.198,0.008-0.266,0.108
		c-0.232-0.1-0.467-0.183-0.665-0.341c-0.548,0.458-1.081,0.889-1.612,1.355c0,0.017,0,0.034,0.017,0.05v0.008
		c0.051,0.141,0.067,0.274,0.084,0.408c0.017,0,0.033,0,0.051,0c-0.018,0.017-0.018,0.05-0.034,0.083
		c0.017,0.066,0.017,0.141,0.017,0.199c0,0.05,0,0.101,0.018,0.15v0.048c0,0.05-0.018,0.091-0.018,0.133v0.008
		c0,0.016,0,0.025,0,0.033c0.018,0.075,0.051,0.108-0.033,0.142v0.017c0,0,0,0,0,0.017c0,0-0.017,0.016-0.017,0.033s0,0.017,0,0.033
		c0,0-0.017,0.009-0.017,0.017s0,0.017,0,0.017c0,0.016-0.017,0.016-0.017,0.016c-0.017,0-0.017,0.008-0.017,0.008l-0.034,0.025
		v0.017v0.008c0,0.008,0,0.008-0.017,0.008c0,0-0.017,0.008-0.017,0.016c-0.017,0.017-0.017,0.017-0.033,0.017
		c0,0-0.018,0-0.018,0.017c0,0,0,0-0.017,0c-0.017,0.017-0.017,0.017-0.017,0.017c-0.033,0-0.05,0-0.05,0c-0.017,0-0.017,0-0.034,0
		h-0.014h-0.017c-0.034-0.017-0.051-0.017-0.051-0.017v0.017c-0.017,0-0.017,0-0.017-0.017c0,0-0.017,0-0.017-0.017
		c-0.017,0-0.017,0-0.033,0l-0.018-0.017c-0.017,0-0.017-0.008-0.017-0.008c-0.017-0.008-0.033-0.008-0.05-0.017c0,0,0,0-0.017,0
		c-0.017-0.008-0.017-0.008-0.017-0.025c-0.051-0.017-0.067-0.034-0.117-0.058c-0.031,0.024-0.049,0.05-0.082,0.083
		c-0.066,0.091-0.134,0.141-0.184,0.191c0.083,0.017,0.167,0.05,0.266,0.058c0.1,0,0.184,0,0.284-0.008
		c0.033-0.009,0.067-0.017,0.098-0.033c0,0,0,0,0.018,0c-0.031-0.017-0.018-0.067-0.018-0.1c0.018,0,0.051-0.017,0.067-0.017
		c-0.017,0.017-0.05,0.066-0.05,0.083c0.066-0.017,0.184-0.034,0.184-0.117c0.084,0.017,0.084,0.017,0.067,0.067
		c0.05-0.034,0.101-0.05,0.148-0.083c0.234-0.183,0.1,0.017-0.031,0.133c0.014,0,0.014,0,0.031,0
		c-0.031,0.017-0.048,0.049-0.048,0.075c0.147-0.075,0.347-0.25,0.431-0.375c0.05-0.066,0.083-0.133,0.117-0.183l0.017-0.033v-0.008
		v-0.008c0.03-0.017,0.03-0.075,0.03-0.066l0.018-0.025c0-0.016,0.017-0.024,0.017-0.041c0.017,0.008,0.017,0.041,0.017,0.066v0.008
		c0,0.017-0.017,0.033-0.033,0.066v0.008h-0.018v0.033l-0.03,0.066c-0.034,0.034-0.051,0.067-0.084,0.117
		c-0.084,0.149-0.366,0.375-0.282,0.357c0.066-0.024,0.182-0.091,0.282-0.191c0.098-0.092,0.198-0.2,0.249-0.333h0.017v-0.017
		c0,0,0.017-0.017,0.05-0.075v-0.017l0.017-0.025l0.017-0.05l0.034-0.099c0-0.034,0.017-0.066,0.017-0.1
		c0,0.05-0.017,0.1-0.017,0.148c-0.017,0.017-0.017,0.059-0.017,0.075v0.05v0.017v0.008c-0.018,0.008-0.018,0.025-0.034,0.083
		h-0.017v0.017c-0.05,0.183-0.084,0.299-0.066,0.349c0.083-0.083,0.15-0.183,0.231-0.283l0.017-0.017v-0.017
		c0.018-0.066,0.034-0.1,0.034-0.108l0.017-0.017l0.033-0.033l0.017-0.083c0.051-0.107,0.101-0.232,0.115-0.29
		c-0.015,0.075-0.081,0.282-0.115,0.423v0.008v0.017c0-0.017-0.017,0.034-0.033,0.05c0,0.033-0.017,0.05-0.017,0.05l-0.017,0.017
		l-0.034,0.066l-0.048,0.1c-0.033,0.083-0.083,0.133-0.117,0.2c-0.05,0.108-0.184,0.265-0.218,0.315
		c-0.164,0.224,0.383-0.173,0.567-0.523l0.031-0.075l0.017-0.033l0.033-0.016c0-0.017,0.017-0.05,0.051-0.117l0.033-0.076
		c0.033-0.058,0.05-0.099,0.066-0.141c0.034-0.082,0.067-0.131,0.115-0.165c-0.031,0.083-0.064,0.148-0.081,0.231l-0.051,0.117
		l-0.017,0.034v0.017c-0.033,0.05-0.05,0.083-0.066,0.1c0,0,0,0-0.018,0.016v0.017l-0.017,0.025l-0.066,0.125
		c-0.132,0.167-0.182,0.258-0.364,0.431c-0.15,0.158-0.299,0.274-0.365,0.349c0.101-0.049,0.215-0.107,0.299-0.174
		c-0.134,0.158-0.35,0.349-0.715,0.524c-0.399,0.183-0.699,0.232-1.048,0.25c-0.531,0-0.797-0.15-0.964-0.183
		c-0.051,0.017-0.033,0.05,0,0.117c0.017,0.017,0.033,0.041,0.066,0.058c-0.1-0.075-0.167-0.124-0.231-0.158
		c-0.101-0.05-0.182-0.066-0.266-0.083c-0.033,0-0.051-0.017-0.084-0.017l-0.017-0.034l-0.017-0.016c0-0.025,0-0.042,0.017-0.059
		c-0.017-0.008-0.033,0-0.051,0.017v-0.008c-0.098-0.1-0.164-0.183-0.231-0.266c-0.117-0.167-0.218-0.316-0.315-0.431
		c-0.101-0.075-0.252-0.101-0.318,0.033c-0.115-0.149-0.297-0.416-0.447-0.357c-0.132-0.059-0.051-0.225-0.033-0.367
		c0.017-0.158-0.148-0.141-0.182-0.124c-0.034-0.132,0.198-0.415,0.1-0.606c0.099,0.042,0.099-0.024,0.115-0.108
		c0-0.067,0.017-0.15,0.117-0.083c-0.017-0.166,0.198-0.083,0.215-0.224h0.034c0.05,0,0.114,0,0.182,0
		c0.134-0.008,0.268-0.017,0.383,0.016c0,0,0.017,0,0.033,0c-0.033-0.125-0.084-0.266-0.033-0.441
		c-0.45-0.131-0.897-0.414-1.062,0.233l0.099-0.49c-0.548,0.73-1.264,1.139-1.445,2.161c-0.335,0.772-0.335,1.555-0.284,2.285
		c-0.017,0.033-0.034,0.05-0.051,0.067c-0.248-0.333-0.464-0.664-0.695-0.997v-0.009c-0.366-0.507-0.716-1.013-1.099-1.521
		c-0.365-0.506-0.748-0.997-1.129-1.496c0.034-0.108,0.051-0.216,0.084-0.332c0.064,0,0.148,0,0.246,0
		c0.815,0.049,1.282-0.482,1.581-1.08c0.182-0.067,0.383-0.142,0.581-0.25c-0.134,0-0.315-0.2-0.265-0.283
		c0.147-0.133,0.382-0.216,0.598-0.316c0.033-0.099,0.05-0.199,0.098-0.299c-0.098-0.025-0.215-0.067-0.248-0.165
		c-0.048-0.15,0.217-0.15,0.399-0.15c0-0.017,0-0.024,0.017-0.042c0-0.008,0.017-0.017,0.017-0.025
		c-0.051-0.042-0.134-0.042-0.201-0.034c-0.114,0.008-0.231,0.017-0.279-0.166c-0.034-0.217,0.296-0.117,0.363-0.283
		c-0.051-0.017-0.115-0.017-0.182,0c-0.117,0.017-0.249,0.042-0.35-0.133c-0.182-0.365,0.366-0.281,0.282-0.539
		c-0.215,0.025-0.299,0.274-0.531,0.258c-0.033-0.483-1.064-0.433-0.796-0.907c-0.218,0.408-0.701-0.075-1.033-0.274
		c0.066-1.421-0.531-2.426-1.012-3.474c0.098,0,0.215,0,0.33,0c1.014,0.173,2.095-0.117,3.176-0.366
		c0.017-0.017,0.017-0.017,0.017-0.017c0.148-0.407,0.333-0.648,0.548-0.889c0.383-0.374,0.682-0.474,0.83-0.54
		c0.017-0.05-0.033-0.075-0.081-0.083c-0.05,0-0.101,0-0.148,0.008c0.148-0.024,0.246-0.033,0.33-0.066
		c0.117-0.033,0.168-0.075,0.234-0.108c0.031-0.017,0.064-0.033,0.081-0.049l0.034,0.016h0.033c0,0,0.017,0.033,0.017,0.05
		c0.033-0.017,0.033-0.034,0.033-0.05h0.018c0.134,0,0.248,0.033,0.332,0.033c0.215,0.034,0.383,0.075,0.548,0.092
		c0.017,0,0.05-0.008,0.067-0.017c0.05-0.058,0.1-0.125,0.134-0.191v-0.032c0,0,0,0,0.033,0c0.064-0.15,0.081-0.357,0.017-0.615
		c0.015,0,0.048,0,0.081,0.017c-0.066-0.117-0.131-0.208-0.282-0.283c0.599,0.316,0.78-0.365,1.082-0.914
		c-0.051-0.516-0.034-0.98,0.679-0.865c-0.132-0.257-0.431-0.416-0.464-0.765c0.117-0.033,0.201,0,0.266,0.066
		c-0.199-0.88,0.033-1.969,0.198-2.875c0-0.017-0.033-0.017-0.033-0.034h-0.229c-0.084,0-0.151-0.017-0.234-0.017
		c-0.067,0-0.148,0-0.216-0.017c-0.05,0.05-0.101,0.083-0.134,0.099c0.218,0.416,0.134,0.798,0.218,1.197
		c0.148,0.25-0.302,0.657-0.302,1.047c-0.296,0.149-0.548,0.199-0.997,0.116l-0.031-0.016H63.97c0,0-0.034-0.017-0.067-0.034
		c-0.084-0.049-0.201-0.1-0.299-0.166c-0.101-0.067-0.148-0.083-0.315-0.216c-0.201-0.167-0.383-0.383-0.551-0.599
		c-0.033-0.066-0.064-0.116-0.114-0.174c-0.051-0.075-0.132-0.241-0.182-0.374c-0.084-0.167-0.168-0.35-0.234-0.532
		c-0.018-0.017-0.082-0.091-0.148-0.208c-0.017-0.042-0.033-0.074-0.051-0.108c0.015,0.045,0.072,0.174,0.105,0.271l-0.005-0.006
		l-0.017-0.041l-0.033-0.067c-0.051-0.091-0.101-0.207-0.168-0.332c-0.066-0.225-0.134-0.69-0.083-1.022
		c0.017-0.316,0.167-0.633,0.251-0.774c0.017-0.025,0.033-0.059,0.05-0.091c0-0.174,0.017-0.365,0.064-0.548
		c0.034-0.2,0.084-0.383,0.168-0.55c0.05-0.165,0.15-0.364,0.184-0.397c0.082-0.158,0.213-0.299,0.313-0.416
		c0.282-0.3,0.35-0.3,0.45-0.391c0.101-0.057,0.266-0.125,0.299-0.141c0.114-0.05,0.231-0.083,0.315-0.117
		c0.115-0.033,0.266-0.05,0.366-0.05h0.067h0.05c0,0-0.033,0.017-0.067,0.017h0.018c0.033,0,0.066,0.017,0.114,0.033
		c0.168,0.083,0.285,0.241,0.416,0.365c0.017-0.017,0.034-0.017,0.067-0.017c0.064,0.25,0.215,0.175,0.35,0.3
		c0.05,0.05,0.081-0.017,0.098-0.1c0.033-0.083,0.05-0.166,0.101-0.117c0.083,0.134-0.084,0.2-0.051,0.316
		c0.051,0.125,0.185,0.175,0.269,0.217l0.114-0.183c0.067,0.183,0.148,0.407,0.249,0.598c0.05-0.033,0.117-0.058,0.184-0.033
		c0-0.017,0-0.025-0.017-0.033c0.099-0.1,0.165-0.149,0.232-0.2c0.033-0.033,0.067-0.049,0.101-0.083l0.033-0.017v-0.017
		c0,0.216,0,0.54,0.017,1.022c0.064,0,0.115-0.05,0.182-0.025c-0.05,0-0.1,0.041-0.083,0.133c0.117,0.083,0.251,0.19,0.352,0.133
		l-0.033,0.083c0.017,0.025,0.033,0.025,0.047,0.025c0.018,0,0.034,0,0.051,0.008c-0.064,0.033-0.148,0.017-0.182,0.083l0.101,0.034
		c-0.034,0.016-0.067,0.05-0.084,0.066c0.084,0.017,0.132,0.066,0.198,0.116c0.051,0.008,0.101,0.017,0.15,0.017h0.018
		c0.048,0.008,0.098,0.017,0.148,0.025h0.017c0.066,0.008,0.117,0.017,0.165,0.042c0.017,0,0.033,0,0.066,0
		c-0.315-0.333-0.679-0.665-0.631-1.164c0.913-1.147,1.695,0.017,2.595,0.798c-0.033-0.033-0.05-0.059-0.05-0.066l-0.018-0.017
		l-0.033-0.032l-0.05-0.066c-0.067-0.067-0.151-0.15-0.185-0.208c0.067,0.075,0.201,0.191,0.302,0.274h0.017v0.008
		c0-0.008,0.048,0.049,0.064,0.091v0.009l0.033,0.024l0.034,0.033l0.066,0.1c0.015,0.017,0.015,0.017,0.015,0.017
		c0.084,0.074,0.184,0.141,0.284,0.199c-0.05-0.142-0.117-0.299-0.2-0.424l-0.051-0.074l-0.017-0.034l-0.017-0.016
		c-0.015-0.017-0.031-0.05-0.081-0.1l-0.034-0.066c-0.05-0.042-0.081-0.075-0.114-0.1c-0.051-0.083-0.084-0.149-0.084-0.183
		c0.05,0.05,0.101,0.1,0.148,0.183l0.101,0.091l0.017,0.025v0.017c0.048,0.05,0.081,0.083,0.081,0.083v0.017l0.017,0.017
		l0.017,0.033l0.067,0.107c0.101,0.175,0.167,0.283,0.251,0.474c0.165,0.1,0.364,0.167,0.562,0.175
		c-1.012-1.43-1.976-3.099-3.057-4.746l-0.399-0.615l-0.199-0.307l-0.114-0.158v-0.017c0.297,0.275,0.447,0.416,0.514,0.482v-0.017
		l-0.033-0.05l-0.066-0.082l-1.099-1.38c-0.182-0.216-0.383-0.441-0.581-0.665c0.615,0.382,1.198,0.715,1.813,1.014l1.095,0.515
		c0.018-0.008,0.084,0.033,0.168,0.083c0.148,0.083,0.332,0.166,0.098-0.1l0.5,0.183c1.297,0.465,2.677,0.897,3.89,1.563
		c-0.399-0.799-1.33-0.915-1.629-1.763c0.167-0.117,0.251-0.017,0.366,0.108c0.064,0.091,0.182,0.191,0.349,0.142
		c-0.134-0.25-0.531-0.482-0.48-0.848c0.713-0.915,1.311,0.739,2.126,0.781c-0.583-0.806-1.131-1.745-1.746-2.693l-0.231-0.349
		l-0.101-0.166l-0.064-0.092v-0.008c0.131,0.133,0.213,0.216,0.263,0.25v-0.017l-0.05-0.05l-0.612-0.766
		c-0.417-0.514-0.899-1.014-1.431-1.479c-1.797-1.679-5.602-2.809-7.097-1.454c-0.318,0.265-0.084,0.822,0.132,1.371
		c-3.641-1.529-9.159-2.759-12.715-2.743c-0.948-0.033-1.912-0.017-2.859,0.034c0.416-0.042,0.814-0.084,1.147-0.108h-0.034h-0.099
		l-0.348,0.008c-1.979,0.05-4.006,0.25-5.935,0.615c-2.227,0.449-2.908,0.715-4.138,1.122c-1.097,0.391-2.144,0.823-3.076,1.289
		c-1.228,0.682-2.16,1.379-2.841,2.078c-0.183,0.191-0.316,0.381-0.366,0.523c-0.73,0.408-1.479,0.89-2.293,1.43
		c-2.692,1.92-4.155,3.881-4.97,5.311c0.699-0.698,1.413-1.337,2.161-1.928c-0.548,0.765-1.529,1.928-2.542,3.432
		c-1.113,1.671-1.479,2.552-2.194,4.131l-0.432,1.097l-0.1,0.266l-0.034,0.083c0.017-0.066,0,0.009-0.033,0.075
		c0,0.05-0.016,0.108,0,0.092c-0.05,0.149-0.133,0.449-0.283,0.964v0.008l-0.016,0.017v0.034l-0.067,0.265l-0.232,1.064
		c-0.149,0.698-0.266,1.388-0.316,1.97c0.249-0.199,0.449-0.765,0.615-1.479c0.1-0.366,0.2-0.772,0.299-1.18l0.15-0.631l0.017-0.033
		v-0.017V30.11v-0.008c0.133-0.499,0.217-0.782,0.25-0.947c0,0,0.034-0.017,0.05-0.091l0.049-0.174l0.117-0.315l0.266-0.649
		c1.031-3.1,4.771-7.147,3.873-5.136c-0.183,0.498-1.047,1.919-1.379,2.925c-0.2,0.524-0.399,1.122-0.615,1.763l-0.3,0.964
		l-0.133,0.515l-0.067,0.25v0.016c-0.083,0.299-0.232,0.824-0.249,0.898v0.017v0.025v0.058c-0.034,1.23-0.183,3.042-0.332,3.698
		c0.149-0.524,0.315-1.629,0.532-2.552l0.166-0.698l0.083-0.365l0.05-0.166v-0.009c0-0.008,0-0.008,0-0.017v-0.008
		c0-0.008,0-0.016,0-0.024V30.07l0.017-0.017c0.05-0.133,0.116-0.374,0.233-0.782v-0.017l0.017-0.049l0.034-0.066l0.065-0.183
		c0.366-0.939,0.832-1.845,1.33-2.643c0.299,0.282,0.166,1.363-0.017,2.941l-0.017,0.075v0.033v0.017v0.009
		c-0.1,0.357-0.166,0.565-0.182,0.682v-0.008c0,0-0.017,0.032-0.017,0.065v0.009l0.017,0.066l0.034,0.167l0.032,0.332
		c0.05,0.232,0.067,0.474,0.067,0.714c0.033,0.499-0.034,1.206-0.083,1.712c0.016-0.232,0.1-0.855,0.149-1.362l0.1-0.864
		l0.083-0.433l0.05-0.215l0.016-0.116c0.117-0.416,0.167-0.616,0.2-0.707V29.42l0.017-0.033v-0.051l0.05-0.116
		c0.399-1.113,0.963-2.193,1.53-2.983c0.797-1.08,1.645-1.795,2.144-2.003c0.648-0.299-1.28,1.912-1.778,3.292
		c-0.183,0.383-0.333,0.764-0.465,1.139l-0.167,0.54l-0.083,0.232v0.067l-0.017,0.033c-0.116,0.374-0.158,0.533-0.183,0.606
		c0.017-0.042,0.033-0.082,0.017,0v0.009v0.008v0.058c0,0.315,0.05,0.523,0.216,0.54c0.034-0.108,0.05-0.25,0.1-0.39l0.017-0.2
		v-0.017v-0.009c0.016-0.042,0.133-0.398,0.183-0.59c0.008-0.017,0.006-0.023,0.008-0.033l0.008-0.017v-0.017
		c0-0.017,0.016-0.05,0.016-0.05s0,0.008-0.016,0.034v0.008v-0.008l0.033-0.075l0.067-0.207c0.182-0.565,0.397-1.189,0.697-1.795
		c0.417-1.03,1.795-2.759,3.043-3.557c-0.117,0.158-0.217,0.365-0.35,0.664c0.017-0.041,0.066-0.091,0.116-0.124
		c-0.898,1.271-1.646,2.925,0.083,1.163c0.316-0.29,0.681-0.573,1.08-0.856c-0.133,0.35-0.05,0.433,0.548,0.35
		c-0.083-0.599,0.899-0.881,1.413-1.197c-0.05,0.208-0.183,0.589-0.381,0.78c0.198-0.083,0.414-0.216,0.581-0.232
		c-0.1-0.282,0.05-0.698-0.25-0.815c0.017-0.017,0.034-0.034,0.066-0.034c0.266-0.133,0.533-0.224,0.781-0.315l-0.017,0.049
		l0.616,0.108l0.016-0.083l-0.566-0.091c0.782-0.273,1.463-0.398,2.228-0.523c0.899-0.059,1.646-0.034,2.26,0.058
		c-0.282,0.448-0.681,1.063-1.195,1.877c-0.05-0.017-0.1-0.033-0.15-0.049c0.033,0.017,0.1,0.049,0.133,0.066
		c-0.149,0.249-0.316,0.516-0.5,0.807c-0.333-0.142-0.666-0.282-0.964-0.382c-0.016-0.008-0.033-0.025-0.05-0.025
		c-0.083-0.034-0.183-0.051-0.283-0.083c-0.017-0.017-0.066-0.017-0.083-0.033c-0.15-0.034-0.282-0.075-0.415-0.1
		c-0.05-0.017-0.1-0.033-0.149-0.041c-0.083-0.009-0.133-0.017-0.2-0.034c-0.05-0.008-0.117-0.017-0.183-0.025
		c-0.05-0.017-0.117-0.034-0.166-0.034c-0.017-0.116-0.034-0.208-0.184-0.116c0.017,0.033,0.033,0.083,0.05,0.116
		c-0.116-0.016-0.233-0.016-0.333-0.016h-0.033c-0.099,0-0.199,0-0.298,0c-0.034,0-0.05,0.016-0.1,0.016c-0.066,0-0.15,0-0.2,0.025
		c-0.117,0.017-0.232,0.042-0.316,0.067c-0.081,0.033-0.165,0.066-0.231,0.124c-0.034,0-0.05,0.017-0.066,0.017
		c-0.067,0.05-0.134,0.1-0.2,0.158c-0.017,0-0.017,0.017-0.034,0.025c-0.066,0.042-0.133,0.091-0.166,0.133
		c-0.017,0.017-0.034,0.05-0.05,0.066c-0.05,0.049-0.1,0.108-0.15,0.174c-0.033,0.025-0.033,0.042-0.067,0.066l-0.083,0.158
		c-0.016,0.017-0.033,0.05-0.05,0.066c-0.033,0.075-0.066,0.142-0.1,0.216c-0.017,0.033-0.034,0.083-0.05,0.117
		c-0.017,0.05-0.033,0.1-0.067,0.149c-0.017,0.066-0.033,0.134-0.05,0.2c-0.017,0.05-0.033,0.091-0.05,0.141
		c0,0.059-0.017,0.108-0.033,0.159c0,0.049-0.017,0.091-0.033,0.148c-0.017,0.083-0.017,0.183-0.034,0.267
		c0,0.05,0,0.091-0.015,0.133c0,0.066,0,0.133-0.017,0.2c-0.499,0.332-0.216,0.564,0,1.105h0.017c0,0.1,0.015,0.208,0.032,0.291
		c0,0.033,0,0.074,0,0.099c0.034,0.341,0.083,0.682,0.15,1.056c0.017,0.125,0.05,0.241,0.067,0.374c0,0,0.017,0.025,0.017,0.041
		c0.083,0.383,0.166,0.791,0.283,1.206c-0.083,0.216-0.2,0.466-0.299,0.732c-0.15-0.3-0.298-0.583-0.465-0.831
		c0-0.017-0.008-0.034-0.017-0.05c-0.083-0.133-0.175-0.249-0.266-0.374c0.232,0.49-0.631,2.169-0.398,3.507
		c0,0.075,0,0.142-0.017,0.224c-0.25,0.532-0.149,0.382-0.016,0.25c0,0.133-0.017,0.274-0.017,0.416c0,0.034,0,0.083-0.017,0.117
		c0,0.216-0.017,0.415-0.017,0.631c-0.017,0.208-0.017,0.432-0.017,0.648c-0.1-0.142-0.2-0.333-0.283-0.6v-0.556v-0.049
		c0-0.225,0-0.441,0-0.657c0,0.025,0,0.05-0.017,0.083c0,0.034,0,0.05,0,0.083c-0.017,0.05-0.017,0.1-0.033,0.15
		c0,0.033-0.017,0.083-0.017,0.133c0,0.033,0,0.066,0,0.116c-0.034,0.05-0.034,0.092-0.034,0.15
		c-0.017,0.033-0.017,0.083-0.017,0.116c-0.033,0.199-0.033,0.431-0.066,0.665v0.066c-0.017,0.083-0.017,0.158-0.017,0.25v0.066
		c-0.017,0.117-0.017,0.233-0.017,0.348c0.017,0.083,0.017,0.133,0.034,0.183c0.066,0.059,0.117,0.15,0.183,0.283v-0.697
		c0.083,0.381,0.183,0.78,0.266,1.13v0.092c0.017,0.041,0.034,0.075,0.05,0.125c0.066,0.297,0.148,0.564,0.215,0.747
		c-0.017,0.233-0.148,0.266,0.05,0.797c0.399,1.107,0.416,0.849,0.449,0.549c0.564,1.479,1.18,2.768,1.646,3.308
		c0.05,0.017,0.115,0,0.148-0.016c0.067,0.075,0.083,0.108,0.117,0.091c0.049,0.024,0.049,0.008,0.049-0.059
		c0.017-0.05,0.034-0.133,0.067-0.225c-0.017,0.042-0.05,0.076-0.083,0.109c0-0.033-0.017-0.067-0.05-0.109
		c0.034,0.017,0.05,0.025,0.066,0.059c-0.016-0.116-0.033-0.216-0.066-0.331c-0.049-0.583-0.1-1.521-0.033-1.879
		c0.083-0.024,0.383,0.017,0.632,0.017c0.05,0.1,0.083,0.2,0.133,0.308c0.032,0.075,0.065,0.158,0.098,0.24
		c0.1,0.25,0.217,0.508,0.333,0.774c0.017,0.042,0.05,0.1,0.066,0.158c0.117,0.233,0.233,0.482,0.333,0.731
		c0.033,0.049,0.049,0.1,0.083,0.166c0.133,0.283,0.283,0.564,0.416,0.847c0.033,0.066,0.066,0.134,0.099,0.2
		c0.149,0.299,0.315,0.599,0.481,0.898c0.15,0.29,0.316,0.588,0.481,0.889c0,0.041,0,0.073-0.017,0.123l-0.731,0.201
		c0.897,0.432,0.864,1.729,0.831,2.959c-0.547,0.433-1.095,0.341-1.361,0.083c0.216,0.515,0.831,0.614,1.196,0.979
		c-0.847,0.657-1.629,1.248-2.327,1.788c0.431-0.773,1.097-1.521,1.197-2.253c-0.516,0.215-1.28,0.815-1.779,0.406
		c-0.464-0.315,0.549-0.838,0.914-1.155c-0.348-0.182-0.564-0.017-0.781,0.151c-0.266,0.199-0.514,0.399-0.963,0.033
		c-0.466-0.441,0.5-0.741,0.399-1.264c-0.299,0.033-0.515,0.465-0.881,0.598c0.133-0.2,0.216-0.456,0.232-0.748
		c0.1-1.837-0.997-3.29-1.927-4.737c0.183,0.914,0.814,1.596,1.014,2.211l0.083-0.075c0.133,0.458,0.614,0.557,0.298,1.122
		c0.083,0.024,0.1-0.084,0.15-0.15c0.333,0.632,0.366,1.297,0.15,2.012c-0.367,0.531-0.399,0.307-0.481,0.067
		c-0.05-0.168-0.167-0.35-0.449-0.2l-0.033,0.167c-0.415-0.524,0.647-1.081,0.133-1.547c-0.499,0.383-0.366,0.98-0.764,1.363
		c-0.458-0.333-0.716-0.972-0.899-1.68c0.133,0.573,0.233,1.182,0.5,1.597c-0.433-0.284-1.064-0.2-1.646-0.116
		c-0.813,0.101-1.562,0.208-1.628-0.632c0.066,0.715-0.416,0.931-1.081,0.997c-0.133,0.165-0.266,0.332-0.399,0.498
		c-0.316,0.185-1.563,0.815-1.895,0.949c-0.565,0.83-0.266,1.179-0.931,1.693c-0.814,0.914-1.312,0.7-1.978,0.973l0.383-0.422
		c-0.466,0.48-0.433-0.034-0.416-0.533c0.017-0.491,0-0.981-0.499-0.583c0.499-0.382,0.316-0.747,0.282-1.145
		c-0.033-0.159-0.365-1.099-0.614-0.733c-0.898-0.382-1.896-0.946-2.228-0.465c-0.482,0.915-1.197,0.915-1.961,1.396
		c-1.098,0.633-2.526,1.281-2.908,2.793c-0.067,1.33-0.1,2.512-0.05,3.583c0.017,0.023,0.05,0.023,0.084,0.04
		c1.844,1.248,2.492,2.361,2.941,2.927c0.183,0.017,0.267-0.166,0.267-0.399c-0.034-0.233-0.133-0.516-0.217-0.766
		c0.266,0.724,0.383,1.14,0.583,1.473c0.249,0.423,0.448,0.656,0.681,0.904l0.233,0.268v-0.052v-0.099v-0.02
		c0.032,0.062,0.071,0.128,0.1,0.187c0,0,0.017,0,0.034,0.034c0.016,0.015,0.033,0.032,0.033,0.015c0,0.018,0,0.034-0.017,0.067
		c0.05,0.084,0.083,0.05,0.133,0.116c0.116-0.074,0.216-0.058,0.315-0.032l-0.249,0.231l-0.017,0.017
		c0-0.017-0.016-0.049-0.049-0.115c-0.083,0.05-0.149,0.083-0.233,0.115l0.016,0.051c0.083,0.563,0.083,0.996,0.083,1.428
		c0.033,0.883,0.017,1.596,0.083,2.261c0.132,0.533,0.598,0.949,1.18,0.641v0.075c0.066-0.042,0.149-0.066,0.233-0.075
		c0.698-0.124,0.598,1.521,0.748,2.178c0.847-0.309,0-1.354,0.498-1.804c-0.05-0.282-0.05-0.582,0.017-0.864
		c0.066,0.049,0.133,0.032,0.216,0.017c0.117,0,0.233-0.017,0.283,0.266c0.066-0.158,0-0.266-0.017-0.416
		c0.067-0.383,0.15-0.945,0.433-0.93c0.397,0.017,0.764,0.747,0.88,1.246c0.233-0.316,0.333-0.865,0.647-0.841
		c0.333,0,0.666,0.191,0.948,0.483c-0.05-0.134-0.083-0.274-0.083-0.433c0.665,0.059,1.081-0.374,1.396-0.938
		c-0.133,0.099-0.266,0.199-0.333,0.25c0.117-0.084,0.232-0.184,0.349-0.284c0.182-0.332,0.333-0.698,0.499-1.015
		c0.881-0.507,1.862-0.732,2.859-0.749l0.117-0.279l-0.034,0.216l-0.049,0.063c0.964-0.017,1.928,0.149,2.842,0.467
		c0.449,0.166,0.897,0.365,1.313,0.599c0.315,0.591,0.583,1.248,0.815,1.943c-0.349,0.168-0.749,0.159-1.115,0.284
		c-0.017-0.399-0.083-0.841-0.133-1.279c-0.083-0.041-0.166-0.083-0.248-0.117l0.165,0.233l-0.034,0.017l-0.165-0.25l0.017-0.017
		c-0.133-0.049-0.266-0.116-0.416-0.166l-0.033-0.009c0.066,0.143-0.133,0.242-0.216,0.383c-0.05-0.049-0.182-0.074-0.282-0.115
		c0.148,0,0.332-0.093,0.415-0.142c-0.3-0.067-0.748-0.316-0.947-0.067c-0.25-0.183-0.25-0.232-0.067-0.315
		c-0.133-0.033-0.266-0.05-0.399-0.059c0.166,0.208,0.333,0.408,0.499,0.607h0.017c0-0.008,0.017-0.008,0.05-0.008
		c0.017,0,0.05,0,0.083,0.008h0.033c0.033,0,0.083,0.009,0.117,0.017c0.017,0,0.017,0,0.05,0c0.033,0.018,0.083,0.034,0.116,0.051
		c0.05,0.023,0.1,0.049,0.133,0.082c0.032,0.018,0.065,0.051,0.099,0.067c0,0,0.033,0.017,0.05,0.033
		c0.017,0.032,0.067,0.049,0.1,0.1v0.008c0.05,0.031,0.083,0.072,0.116,0.122c0.017-0.024,0.017-0.041,0.017-0.059
		c0.1,0.018,0.083,0.059,0.017,0.109c0.033,0.017,0.05,0.05,0.066,0.066c0.017,0.016,0.033,0.05,0.066,0.083
		c0.017,0.017,0.033,0.042,0.05,0.075c0.017,0.017,0.017,0.042,0.033,0.065c0.033,0.059,0.066,0.109,0.116,0.175
		c0,0.017,0.017,0.034,0.017,0.051c0.017,0.033,0.05,0.083,0.083,0.125c0,0.009,0,0.024,0,0.024v0.017
		c0.05,0.017,0.099,0.05,0.149,0.084c-0.017-0.067-0.033-0.125-0.115-0.233c0.415-0.083,0.099,0.366,0.315,0.483
		c-0.167-0.059-0.2-0.084-0.216-0.117c-0.017,0-0.017,0.008-0.034,0.017c0.034,0.075,0.066,0.149,0.1,0.216
		c0.183-0.033,0.333-0.066,0.499-0.099c0.383-0.101,0.699-0.175,0.931-0.233c0.3,0.1,0.583,0.199,0.881,0.299
		c0.316,0.616,0.632,1.229,1.015,1.829c0.548,0.932,1.164,1.38,1.828,1.743c0.2,0.908,0.333,1.698,0.632,2.327
		c0.05,0.166,0.1,0.299,0.167,0.434l0.947-0.441c-0.05,1.224,0.165,2.834,0.847,4.365c-0.083,0.033-0.166,0.066-0.232,0.101
		l0.482,0.978c-0.167,0.167-0.35,0.233-0.55-0.099c-0.2,0.307-0.416,0.248-0.664,0.183c-0.2-0.05-0.433-0.116-0.649,0.1
		c-0.032-0.017-0.032-0.041-0.065-0.05l-0.216,0.092l0.033-0.175l0.167,0.075c-0.649-0.491-1.48-0.791-1.896-1.396
		c-0.049-0.042-0.083-0.074-0.133-0.125c-0.2,0.532-0.365,1.062-0.847,1.528c0.432,0.383,0.931,0.782,1.396,1.132
		c0.148,0.116,0.348,0.25,0.547,0.379c0.05-0.179,0.117-0.346,0.133-0.528l0.15,0.231c-0.35-0.582,1.38-0.183,1.147-0.855
		c0.083,0.273,0.333,0.191,0.598,0.099c0.216-0.082,0.466-0.157,0.632-0.008c0.166-0.149,0.049-0.383,0.2-0.549
		c0.233,0.133-0.217,0.449,0.183,0.565c0.05,0.017,0.083,0.008,0.133,0l0.848,1.77c0.117-0.075,0.231-0.141,0.331-0.225
		c-0.049,0.124-0.083,0.241-0.165,0.366c0.182,0.416,0.249,0.89,0.082,1.298l0.017,0.008c0.183,0.059,0.35,0.109,0.499,0.159
		l0.133-0.683l-0.083,0.698c0.815,0.281,1.579,0.58,4.371,0.863c0.133,0.009,0.25,0.017,0.383,0.017
		c0.033,0.915,0.116,1.811,0.132,2.701c-2.643-0.44-6.35-1.141-11.385-2.9c-1.863-0.713-3.442-1.43-4.803-2.095
		c-0.649-0.291-1.223-0.591-1.78-0.874c0.822,0.441,2.177,1.156,4.521,2.386l-0.131-0.05l-0.233-0.097l-0.948-0.366
		c-2.46-0.981-4.271-1.814-6.016-2.685c-0.333-0.191-0.648-0.366-0.964-0.541c-1.296-0.841-3.174-2.062-5.602-4.339
		c-0.78-0.789-1.446-1.527-1.978-2.168c-0.266-0.324-0.532-0.624-0.749-0.906l-0.166-0.217c0.149,0.217,0.166,0.217,0.1,0.149
		c0.315,0.399,0.881,1.131,1.862,2.368l-0.05-0.049l-0.1-0.109l-0.4-0.399c-1.03-1.062-1.777-1.911-2.46-2.757
		c-0.647-0.832-1.13-1.373-1.794-2.659c0.017-0.034,0.033-0.083,0.05-0.125c0.183,0.025,0,0.258,0.15,0.35
		c0.066-0.142,0-0.374,0.149-0.475c0.599-0.083,0.2,0.716,0.465,1.013c0.1-0.488,0.249-1.028,0.383-1.57l0.05-0.208l0.017-0.107
		l0.017-0.051v0.142l0.083-0.499c0.034-0.324,0.05-0.68,0.017-1.021c-0.017-1.24-0.964-2.984-1.995-3.001
		c-0.315-0.034-0.415,0.533-0.648,0.84c-0.133-0.458-0.432-1.089-0.781-1.222c-0.066-0.399-0.132-0.807-0.199-1.213
		c0.016,0.373,0.083,0.771,0.167,1.196c-0.017,0-0.05-0.017-0.067-0.017c-0.283-0.018-0.382,0.556-0.432,0.948
		c0,0.133,0.083,0.248,0,0.407c-0.05-0.291-0.15-0.274-0.283-0.258c-0.083,0.017-0.149,0.033-0.216-0.033
		c-0.15,0.812,0.1,1.636,0.599,2.094c0.083-0.283,0.1-0.683,0.149-0.982c0.233,0.35,0.382,0.749,0.748,0.873
		c0.1,0.417,0.183,0.8,0.316,1.188l0.2,0.557c0.05,0.009,0.083,0.366,0.117,0.093l0.116,0.231c0.216,0.483,0.465,0.967,0.648,1.471
		c-0.416-0.588-0.847-1.237-1.28-1.902c0.383,0.665,0.848,1.381,1.347,2.111c0.05,0.082,0.083,0.157,0.1,0.248
		c0.017-0.033,0.017-0.065,0.033-0.091c0.149,0.225,0.315,0.44,0.482,0.665c0.249,0.483,0.515,0.957,0.765,1.337
		c0.382,0.616,0.781,1.224,1.214,1.814c-0.2-0.241-0.367-0.467-0.533-0.658l0.034,0.051l0.166,0.225
		c0.831,1.229,1.812,2.427,2.86,3.488c1.213,1.24,1.678,1.564,2.442,2.179c0.731,0.532,1.447,1.014,2.145,1.413
		c0.581,0.3,1.147,0.533,1.646,0.7c0.166,0.115,0.349,0.221,0.516,0.33c1.046,0.715,2.144,1.397,3.257,2.046
		c-0.498-0.266-0.98-0.499-1.379-0.715l0.017,0.017l0.115,0.065l0.433,0.25c2.26,1.379,4.72,2.626,7.18,3.605
		c2.86,1.115,3.855,1.314,5.551,1.745c0.964,0.225,1.871,0.341,2.793,0.482c0.564,0.092,1.155,0.232,1.696,0.3
		c1.895,0.116,3.489,0,4.802-0.3c0.051-0.009,0.067-0.025,0.117-0.034c-0.322-0.008-0.632-0.017-0.964-0.017c0,0,0.005,0,0.008,0
		c0.324,0,0.634,0.009,0.956,0.017c1.015,0,2.019,0.009,3.017,0.017c0.789,0.158,1.669,0.191,2.667,0.051
		c0.383-0.059,0.766-0.1,1.198-0.225c0.315-0.125,0.614-0.259,0.914-0.388c1.081-0.101,2.159-0.233,3.24-0.376
		c2.942-1.238,5.72-2.684,8.229-4.429c0.033,0.051,0.066,0.114,0.101,0.147c-0.017-0.064-0.017-0.113-0.034-0.181
		c0.034-0.033,0.067-0.059,0.115-0.075c1.266-0.574,2.344-1.114,3.624-1.763c-1.629,0.523-3.107,1.188-4.438,1.854
		c-0.165,0.067-0.332,0.1-0.466,0.1c-0.366,0.281-0.548,0.405-0.749,0.529c-0.548,0.168-1.179,0.359-1.811,0.583
		c4.141-2.16,7.314-4.287,10.838-6.98c-0.632,0.258-1.38,0.267-1.83,0.117c0.399-0.301,0.799-0.616,1.198-0.949
		c0.216-0.066,0.399-0.134,0.48-0.184c0.366-0.124,0.302-0.198-0.017-0.216c1.099-0.954,2.146-1.978,2.992-2.956
		c-0.165-0.017-0.315-0.033-0.48-0.075c-0.299,0.458-0.698,0.979-1.313,1.67c-0.383,0.407-0.832,0.881-1.363,1.361
		c-0.315,0-0.782,0.066-1.279,0.158c1.646-1.652,4.138-3.307,5.935-4.878c0.014,0.065,0.081,0.116,0.265,0.099l3.191-1.911
		c0.182-0.057,2.576-0.945,2.777-1.028c-0.151-0.017-0.335-0.216-0.269-0.3c0.285-0.24,0.799-0.333,1.033-0.574
		c-0.184-0.042-0.517-0.009-0.583-0.208c-0.067-0.175,0.315-0.142,0.482-0.158c-0.066-0.124-0.167-0.107-0.265-0.107
		c-0.101,0.017-0.218,0.033-0.252-0.158c-0.05-0.208,0.282-0.108,0.333-0.274c-0.033-0.017-0.098-0.017-0.165,0
		c-0.117,0.017-0.251,0.033-0.333-0.142c-0.217-0.363,0.333-0.272,0.266-0.521c-0.231,0.017-0.315,0.249-0.533,0.24
		c-0.017-0.474-1.062-0.432-0.797-0.906c-0.265,0.5-0.863-0.258-1.212-0.332c0.48-0.7,0.947-1.396,1.38-2.129
		c-0.467-0.066,0.297-1.245,0.464-1.67C89.185,55.483,90.214,51.346,90.646,47.447z M18.077,61.25v-0.017
		c0.004,0.008,0.008,0.016,0.012,0.023L18.077,61.25z M48.51,10.955h0.017c0,0,0.034,0,0.067,0c-0.033,0-0.067,0-0.067,0H48.51z"/>
	<radialGradient id="SVGID_104_" cx="76.9629" cy="38.5293" r="0.0399" gradientUnits="userSpaceOnUse">
		<stop  offset="0" style="stop-color:#BDDFF3"/>
		<stop  offset="0.4263" style="stop-color:#6DB0E3"/>
		<stop  offset="0.9842" style="stop-color:#496796"/>
		<stop  offset="1" style="stop-color:#496796"/>
	</radialGradient>
	<path fill="url(#SVGID_104_)" d="M77.008,38.496c-0.033,0.029-0.069,0.062-0.091,0.068C76.945,38.548,76.979,38.522,77.008,38.496z
		"/>
	<radialGradient id="SVGID_105_" cx="76.4541" cy="40.1733" r="0.0012" gradientUnits="userSpaceOnUse">
		<stop  offset="0" style="stop-color:#BDDFF3"/>
		<stop  offset="0.4263" style="stop-color:#6DB0E3"/>
		<stop  offset="0.9842" style="stop-color:#496796"/>
		<stop  offset="1" style="stop-color:#496796"/>
	</radialGradient>
	<polygon fill="url(#SVGID_105_)" points="76.453,40.175 76.453,40.175 76.455,40.172 	"/>
	<radialGradient id="SVGID_106_" cx="76.543" cy="39.9458" r="0.0901" gradientUnits="userSpaceOnUse">
		<stop  offset="0" style="stop-color:#BDDFF3"/>
		<stop  offset="0.4263" style="stop-color:#6DB0E3"/>
		<stop  offset="0.9842" style="stop-color:#496796"/>
		<stop  offset="1" style="stop-color:#496796"/>
	</radialGradient>
	<path fill="url(#SVGID_106_)" d="M76.503,40.066h0.012c0.031-0.079,0.053-0.163,0.069-0.241C76.534,39.909,76.534,40,76.503,40.066
		z"/>
	<radialGradient id="SVGID_107_" cx="76.4873" cy="40.1191" r="0.0437" gradientUnits="userSpaceOnUse">
		<stop  offset="0" style="stop-color:#BDDFF3"/>
		<stop  offset="0.4263" style="stop-color:#6DB0E3"/>
		<stop  offset="0.9842" style="stop-color:#496796"/>
		<stop  offset="1" style="stop-color:#496796"/>
	</radialGradient>
	<path fill="url(#SVGID_107_)" d="M76.52,40.066h-0.005c-0.014,0.038-0.038,0.071-0.06,0.105
		C76.527,40.154,76.486,40.107,76.52,40.066z"/>
	<radialGradient id="SVGID_108_" cx="76.4355" cy="40.2207" r="0.0402" gradientUnits="userSpaceOnUse">
		<stop  offset="0" style="stop-color:#BDDFF3"/>
		<stop  offset="0.4263" style="stop-color:#6DB0E3"/>
		<stop  offset="0.9842" style="stop-color:#496796"/>
		<stop  offset="1" style="stop-color:#496796"/>
	</radialGradient>
	<path fill="url(#SVGID_108_)" d="M76.453,40.175c-0.017,0.031-0.026,0.064-0.051,0.091c0.024-0.033,0.067-0.059,0.067-0.091
		C76.453,40.175,76.455,40.175,76.453,40.175z"/>
	<radialGradient id="SVGID_109_" cx="22.4482" cy="67.8379" r="0.1078" gradientUnits="userSpaceOnUse">
		<stop  offset="0" style="stop-color:#BDDFF3"/>
		<stop  offset="0.4263" style="stop-color:#6DB0E3"/>
		<stop  offset="0.9842" style="stop-color:#496796"/>
		<stop  offset="1" style="stop-color:#496796"/>
	</radialGradient>
	<path fill="url(#SVGID_109_)" d="M22.365,67.709c0.05,0.107,0.1,0.174,0.167,0.257c0-0.065-0.034-0.133-0.034-0.2
		C22.448,67.741,22.415,67.732,22.365,67.709z"/>
	<radialGradient id="SVGID_110_" cx="27.7012" cy="29.4746" r="0.0031" gradientUnits="userSpaceOnUse">
		<stop  offset="0" style="stop-color:#BDDFF3"/>
		<stop  offset="0.4263" style="stop-color:#6DB0E3"/>
		<stop  offset="0.9842" style="stop-color:#496796"/>
		<stop  offset="1" style="stop-color:#496796"/>
	</radialGradient>
	<line fill="url(#SVGID_110_)" x1="27.701" y1="29.479" x2="27.701" y2="29.471"/>
	<radialGradient id="SVGID_111_" cx="80.0996" cy="42.2075" r="0.0177" gradientUnits="userSpaceOnUse">
		<stop  offset="0" style="stop-color:#BDDFF3"/>
		<stop  offset="0.4263" style="stop-color:#6DB0E3"/>
		<stop  offset="0.9842" style="stop-color:#496796"/>
		<stop  offset="1" style="stop-color:#496796"/>
	</radialGradient>
	<path fill="url(#SVGID_111_)" d="M80.076,42.202l0.008,0.008c0.01,0.008,0.023-0.008,0.04,0
		C80.107,42.21,80.094,42.202,80.076,42.202z"/>
	<radialGradient id="SVGID_112_" cx="48.5518" cy="10.9551" r="0.0297" gradientUnits="userSpaceOnUse">
		<stop  offset="0" style="stop-color:#BDDFF3"/>
		<stop  offset="0.4263" style="stop-color:#6DB0E3"/>
		<stop  offset="0.9842" style="stop-color:#496796"/>
		<stop  offset="1" style="stop-color:#496796"/>
	</radialGradient>
	<path fill="url(#SVGID_112_)" d="M48.594,10.955c-0.033,0-0.067,0-0.067,0H48.51"/>
</g>
</svg>
